<svg width="42" height="42" viewBox="0 0 42 42" fill="none" xmlns="http://www.w3.org/2000/svg">
<g id="nigiri 1" clip-path="url(#clip0_414_9679)">
<g id="Group">
<g id="Group_2">
<path id="Vector" d="M33.8825 23.2772H14.1856C9.70227 23.2772 6.06787 19.6428 6.06787 15.1595C6.06787 9.23705 10.869 4.43604 16.7913 4.43604H31.2768C37.1991 4.43595 42.0002 9.23697 42.0002 15.1594C42.0002 19.6427 38.3658 23.2772 33.8825 23.2772Z" fill="url(#paint0_linear_414_9679)"/>
<g id="Group_3">
<path id="Vector_2" d="M33.3382 17.9934C33.9371 17.9934 34.4226 17.5079 34.4226 16.909C34.4226 16.3102 33.9371 15.8247 33.3382 15.8247C32.7394 15.8247 32.2539 16.3102 32.2539 16.909C32.2539 17.5079 32.7394 17.9934 33.3382 17.9934Z" fill="url(#paint1_linear_414_9679)"/>
<path id="Vector_3" d="M21.0267 13.9185C20.4279 13.9185 19.9424 14.4039 19.9424 15.0028C19.9424 15.6017 20.4279 16.0871 21.0267 16.0871C21.6256 16.0871 22.1111 15.6017 22.1111 15.0028C22.1111 14.4038 21.6256 13.9185 21.0267 13.9185Z" fill="url(#paint2_linear_414_9679)"/>
<path id="Vector_4" d="M15.1403 11.7495C14.5414 11.7495 14.0559 12.235 14.0559 12.8339C14.0559 13.4327 14.5414 13.9182 15.1403 13.9182C15.7391 13.9182 16.2246 13.4327 16.2246 12.8339C16.2246 12.235 15.7391 11.7495 15.1403 11.7495Z" fill="url(#paint3_linear_414_9679)"/>
<path id="Vector_5" d="M13.6511 20.5781C14.791 20.5781 15.715 19.654 15.715 18.5141C15.715 17.3743 14.791 16.4502 13.6511 16.4502C12.5112 16.4502 11.5872 17.3743 11.5872 18.5141C11.5872 19.654 12.5112 20.5781 13.6511 20.5781Z" fill="url(#paint4_linear_414_9679)"/>
<path id="Vector_6" d="M40.6802 10.0014C38.8577 6.68427 35.3297 4.43604 31.2771 4.43604H16.7912C13.8307 4.43604 11.1492 5.63592 9.20901 7.57698C8.49336 8.29262 7.87901 9.10792 7.38818 10.0014C7.90371 11.8816 10.0276 13.303 12.2165 12.1731C14.6287 10.9287 17.2442 9.98745 19.6407 9.98745H28.4277C30.8242 9.98745 33.4397 10.9287 35.8518 12.1731C36.1153 12.309 36.3778 12.408 36.6367 12.4737C37.8377 12.7785 38.6954 13.8411 38.7043 15.0801C38.7045 15.1064 38.7046 15.1329 38.7046 15.1592C38.7046 16.3906 38.4301 17.5575 37.9395 18.6031C37.5431 18.2878 37.0342 18.1079 36.4824 18.1349C35.3897 18.1883 34.4933 19.0729 34.4266 20.1649C34.4134 20.3809 34.4318 20.5906 34.4778 20.7899C34.6678 21.6134 34.249 22.4556 33.4586 22.7548C32.5659 23.0927 31.5981 23.2777 30.5871 23.2777H33.8829C36.1245 23.2777 38.1537 22.3685 39.6229 20.8993C41.092 19.4301 42.0004 17.4009 42.0004 15.1593C42.0003 13.2898 41.5218 11.5316 40.6802 10.0014Z" fill="url(#paint5_linear_414_9679)"/>
</g>
<path id="Vector_7" d="M19.6397 7.92787H28.4271C30.8236 7.92787 33.4392 8.86867 35.8509 10.1133C39.2511 11.868 42.4956 7.46587 39.7966 4.75374C36.8748 1.81745 32.8296 0 28.36 0H19.7069C15.2373 0 11.1921 1.81745 8.27012 4.75366C5.57117 7.46579 8.81571 11.8679 12.2159 10.1132C14.6276 8.86867 17.2432 7.92787 19.6397 7.92787Z" fill="url(#paint6_linear_414_9679)"/>
<g id="Group_4">
<path id="Vector_8" d="M39.7976 4.75325C37.3167 2.26026 34.026 0.573671 30.3533 0.121388C30.3533 0.121388 30.3518 0.121388 30.3497 0.121471C29.6978 0.0410941 29.0344 0 28.3612 0H24.4116C22.8757 0.432353 21.6552 1.02941 20.7526 1.58118C18.8041 2.77282 17.867 4.01059 17.8283 4.06247C17.624 4.33588 17.68 4.72294 17.9534 4.92718C18.0646 5.00953 18.1939 5.04988 18.3224 5.04988C18.511 5.04988 18.6963 4.96424 18.8181 4.802C18.8492 4.76008 21.8585 0.839177 28.4655 0.627035C29.1757 0.604224 29.8854 0.715977 30.5534 0.957683L30.5636 0.961388C25.7616 1.51595 23.4143 4.28071 23.2983 4.42079C23.0813 4.683 23.118 5.07055 23.3795 5.28838C23.4947 5.38432 23.6347 5.4311 23.774 5.4311C23.9507 5.4311 24.1264 5.35566 24.2488 5.20973C24.2564 5.20067 25.0259 4.29438 26.557 3.47077C28.0099 2.68932 29.6244 2.24058 31.3765 2.12833C32.4651 2.05858 33.549 2.36485 34.4365 2.99921L34.4498 3.00877C29.4147 3.19562 26.8092 5.9393 26.6829 6.07575C26.4518 6.32553 26.4669 6.71448 26.716 6.94647C26.8347 7.05707 26.9857 7.11175 27.1364 7.11175C27.3016 7.11175 27.4665 7.04604 27.5882 6.91617C27.5963 6.9076 28.4148 6.0452 29.9892 5.30773C31.6024 4.55214 33.3821 4.19506 35.2982 4.23813C35.748 4.24826 36.1792 4.4296 36.4968 4.74839C36.4984 4.75004 36.5001 4.75168 36.5017 4.75333C38.2772 6.53751 37.4804 9.05281 35.7595 10.0658C35.7902 10.0815 35.8211 10.097 35.8517 10.1129C39.252 11.8675 42.4965 7.46538 39.7976 4.75325Z" fill="url(#paint7_linear_414_9679)"/>
<path id="Vector_9" d="M19.7072 8.2353e-05C19.6968 8.2353e-05 19.6865 8.2353e-05 19.6761 8.2353e-05C17.9959 0.00321177 16.3781 0.654788 15.1511 1.80262C13.9068 2.9666 13.3693 3.98901 13.3232 4.07894C13.1692 4.382 13.2894 4.75259 13.5916 4.90824C13.6814 4.95435 13.7778 4.97659 13.8733 4.97659C14.0965 4.97659 14.313 4.85388 14.4226 4.64224C14.4283 4.63153 14.9826 3.57988 16.2978 2.44259C17.6187 1.30035 19.1966 0.482588 21.0059 0H19.7072V8.2353e-05Z" fill="url(#paint8_linear_414_9679)"/>
</g>
</g>
<g id="Group_5">
<path id="Vector_10" d="M27.8146 41.9999H8.11769C3.6344 41.9999 0 38.3655 0 33.8822C0 27.9598 4.80109 23.1587 10.7234 23.1587H25.2089C31.1313 23.1587 35.9323 27.9598 35.9323 33.8821C35.9323 38.3655 32.2979 41.9999 27.8146 41.9999Z" fill="url(#paint9_linear_414_9679)"/>
<g id="Group_6">
<path id="Vector_11" d="M27.2701 36.716C27.869 36.716 28.3545 36.2306 28.3545 35.6317C28.3545 35.0328 27.869 34.5474 27.2701 34.5474C26.6713 34.5474 26.1858 35.0328 26.1858 35.6317C26.1858 36.2306 26.6713 36.716 27.2701 36.716Z" fill="url(#paint10_linear_414_9679)"/>
<path id="Vector_12" d="M14.9586 32.6411C14.3597 32.6411 13.8743 33.1266 13.8743 33.7255C13.8743 34.3243 14.3597 34.8098 14.9586 34.8098C15.5575 34.8098 16.0429 34.3243 16.0429 33.7255C16.0429 33.1266 15.5575 32.6411 14.9586 32.6411Z" fill="url(#paint11_linear_414_9679)"/>
<path id="Vector_13" d="M9.07238 30.4722C8.47351 30.4722 7.98804 30.9576 7.98804 31.5565C7.98804 32.1554 8.47351 32.6409 9.07238 32.6409C9.67125 32.6409 10.1567 32.1554 10.1567 31.5565C10.1566 30.9576 9.67117 30.4722 9.07238 30.4722Z" fill="url(#paint12_linear_414_9679)"/>
<path id="Vector_14" d="M7.58321 39.3007C8.72309 39.3007 9.64714 38.3767 9.64714 37.2368C9.64714 36.0969 8.72309 35.1729 7.58321 35.1729C6.44334 35.1729 5.51929 36.0969 5.51929 37.2368C5.51929 38.3767 6.44334 39.3007 7.58321 39.3007Z" fill="url(#paint13_linear_414_9679)"/>
<path id="Vector_15" d="M34.6123 28.7241C32.7898 25.4069 29.2618 23.1587 25.2093 23.1587H10.7234C7.76278 23.1587 5.08137 24.3586 3.14114 26.2996C2.42549 27.0153 1.81114 27.8306 1.32031 28.7241C1.83584 30.6042 3.95972 32.0256 6.14867 30.8958C8.56078 29.6514 11.1763 28.7101 13.5728 28.7101H22.3598C24.7563 28.7101 27.3718 29.6514 29.784 30.8958C30.0474 31.0316 30.3099 31.1306 30.5689 31.1964C31.7698 31.5011 32.6275 32.5637 32.6364 33.8027C32.6366 33.8291 32.6367 33.8555 32.6367 33.8819C32.6367 35.1132 32.3622 36.2802 31.8716 37.3257C31.4752 37.0105 30.9663 36.8305 30.4145 36.8575C29.3218 36.911 28.4254 37.7955 28.3587 38.8875C28.3455 39.1036 28.3639 39.3133 28.4099 39.5125C28.5999 40.3361 28.1811 41.1783 27.3907 41.4775C26.498 41.8154 25.5302 42.0003 24.5192 42.0003H27.815C30.0566 42.0003 32.0858 41.0912 33.555 39.622C35.0242 38.1528 35.9325 36.1236 35.9325 33.882C35.9324 32.0125 35.454 30.2542 34.6123 28.7241Z" fill="url(#paint14_linear_414_9679)"/>
</g>
<path id="Vector_16" d="M13.5726 26.6504H22.36C24.7565 26.6504 27.3722 27.5912 29.7838 28.8358C33.184 30.5905 36.4285 26.1884 33.7296 23.4763C30.8076 20.5401 26.7625 18.7227 22.2928 18.7227H13.6398C9.17013 18.7227 5.12495 20.5401 2.20299 23.4763C-0.495967 26.1884 2.74857 30.5905 6.14876 28.8358C8.56047 27.5913 11.1761 26.6504 13.5726 26.6504Z" fill="url(#paint15_linear_414_9679)"/>
<g id="Group_7">
<path id="Vector_17" d="M33.7299 23.4759C31.249 20.9828 27.9584 19.2963 24.2857 18.844C24.2857 18.844 24.2842 18.844 24.2821 18.8441C23.6302 18.7638 22.9668 18.7227 22.2936 18.7227H18.3439C16.808 19.155 15.5876 19.7521 14.685 20.3038C12.7365 21.4955 11.7993 22.7333 11.7606 22.7851C11.5564 23.0585 11.6124 23.4456 11.8858 23.6498C11.997 23.7322 12.1263 23.7726 12.2547 23.7726C12.4433 23.7726 12.6286 23.6869 12.7505 23.5247C12.7816 23.4828 15.7909 19.5618 22.3979 19.3497C23.108 19.3269 23.8178 19.4386 24.4858 19.6803L24.496 19.684C19.694 20.2386 17.3466 23.0034 17.2307 23.1435C17.0137 23.4057 17.0504 23.7932 17.3119 24.011C17.4271 24.107 17.5671 24.1538 17.7063 24.1538C17.8831 24.1538 18.0588 24.0783 18.1812 23.9324C18.1888 23.9233 18.9583 23.017 20.4894 22.1934C21.9423 21.412 23.5568 20.9632 25.3088 20.851C26.3975 20.7812 27.4814 21.0875 28.3688 21.7219L28.3822 21.7314C23.3471 21.9183 20.7416 24.662 20.6153 24.7984C20.3841 25.0482 20.3993 25.4372 20.6483 25.6691C20.7671 25.7797 20.918 25.8344 21.0687 25.8344C21.2339 25.8344 21.3989 25.7687 21.5205 25.6388C21.5287 25.6303 22.3472 24.7679 23.9216 24.0304C25.5347 23.2748 27.3145 22.9177 29.2306 22.9608C29.6804 22.9709 30.1116 23.1523 30.4291 23.4711L30.4341 23.476C32.2096 25.2602 31.4128 27.7755 29.6918 28.7884C29.7226 28.8042 29.7534 28.8197 29.7841 28.8355C33.1843 30.5902 36.4288 26.1881 33.7299 23.4759Z" fill="url(#paint16_linear_414_9679)"/>
<path id="Vector_18" d="M13.6395 18.7227C13.6292 18.7227 13.6189 18.7227 13.6085 18.7227C11.9282 18.7259 10.3105 19.3774 9.08344 20.5253C7.83917 21.6892 7.30166 22.7116 7.25554 22.8016C7.10154 23.1046 7.22177 23.4752 7.52401 23.6309C7.61377 23.677 7.71013 23.6992 7.80566 23.6992C8.02883 23.6992 8.24542 23.5765 8.35495 23.3649C8.36071 23.3542 8.91495 22.3025 10.2301 21.1652C11.5511 20.023 13.1289 19.2052 14.9382 18.7227H13.6395V18.7227Z" fill="url(#paint17_linear_414_9679)"/>
</g>
</g>
</g>
</g>
<defs>
<linearGradient id="paint0_linear_414_9679" x1="7.03428" y1="13.8566" x2="41.1286" y2="13.8566" gradientUnits="userSpaceOnUse">
<stop stop-color="#F8F6F7"/>
<stop offset="0.1788" stop-color="#F8F6F7"/>
<stop offset="1" stop-color="#E7E6F5"/>
</linearGradient>
<linearGradient id="paint1_linear_414_9679" x1="2.10117" y1="16.909" x2="41.7269" y2="16.909" gradientUnits="userSpaceOnUse">
<stop stop-color="#F8F6F7"/>
<stop offset="1" stop-color="#D1CEEB"/>
</linearGradient>
<linearGradient id="paint2_linear_414_9679" x1="2.10138" y1="15.0027" x2="41.7271" y2="15.0027" gradientUnits="userSpaceOnUse">
<stop stop-color="#F8F6F7"/>
<stop offset="1" stop-color="#D1CEEB"/>
</linearGradient>
<linearGradient id="paint3_linear_414_9679" x1="2.10056" y1="12.8339" x2="41.7264" y2="12.8339" gradientUnits="userSpaceOnUse">
<stop stop-color="#F8F6F7"/>
<stop offset="1" stop-color="#D1CEEB"/>
</linearGradient>
<linearGradient id="paint4_linear_414_9679" x1="2.10074" y1="18.5141" x2="41.7266" y2="18.5141" gradientUnits="userSpaceOnUse">
<stop stop-color="#F8F6F7"/>
<stop offset="1" stop-color="#D1CEEB"/>
</linearGradient>
<linearGradient id="paint5_linear_414_9679" x1="2.10088" y1="13.8568" x2="41.7267" y2="13.8568" gradientUnits="userSpaceOnUse">
<stop stop-color="#F8F6F7"/>
<stop offset="1" stop-color="#D1CEEB"/>
</linearGradient>
<linearGradient id="paint6_linear_414_9679" x1="7.94697" y1="5.25741" x2="48.2598" y2="5.25741" gradientUnits="userSpaceOnUse">
<stop stop-color="#FE646F"/>
<stop offset="0.593" stop-color="#FB2B3A"/>
<stop offset="1" stop-color="#C41926"/>
</linearGradient>
<linearGradient id="paint7_linear_414_9679" x1="-1.15245" y1="5.25716" x2="38.1685" y2="5.25716" gradientUnits="userSpaceOnUse">
<stop stop-color="#FE646F"/>
<stop offset="0.593" stop-color="#FB2B3A"/>
<stop offset="1" stop-color="#C41926"/>
</linearGradient>
<linearGradient id="paint8_linear_414_9679" x1="-1.15275" y1="2.48838" x2="38.1681" y2="2.48838" gradientUnits="userSpaceOnUse">
<stop stop-color="#FE646F"/>
<stop offset="0.593" stop-color="#FB2B3A"/>
<stop offset="1" stop-color="#C41926"/>
</linearGradient>
<linearGradient id="paint9_linear_414_9679" x1="0.966412" y1="32.5793" x2="35.0609" y2="32.5793" gradientUnits="userSpaceOnUse">
<stop stop-color="#F8F6F7"/>
<stop offset="0.1788" stop-color="#F8F6F7"/>
<stop offset="1" stop-color="#E7E6F5"/>
</linearGradient>
<linearGradient id="paint10_linear_414_9679" x1="-3.96699" y1="35.6317" x2="35.6588" y2="35.6317" gradientUnits="userSpaceOnUse">
<stop stop-color="#F8F6F7"/>
<stop offset="1" stop-color="#D1CEEB"/>
</linearGradient>
<linearGradient id="paint11_linear_414_9679" x1="-3.96675" y1="33.7255" x2="35.659" y2="33.7255" gradientUnits="userSpaceOnUse">
<stop stop-color="#F8F6F7"/>
<stop offset="1" stop-color="#D1CEEB"/>
</linearGradient>
<linearGradient id="paint12_linear_414_9679" x1="-3.96739" y1="31.5565" x2="35.6584" y2="31.5565" gradientUnits="userSpaceOnUse">
<stop stop-color="#F8F6F7"/>
<stop offset="1" stop-color="#D1CEEB"/>
</linearGradient>
<linearGradient id="paint13_linear_414_9679" x1="-3.9671" y1="37.2369" x2="35.6586" y2="37.2369" gradientUnits="userSpaceOnUse">
<stop stop-color="#F8F6F7"/>
<stop offset="1" stop-color="#D1CEEB"/>
</linearGradient>
<linearGradient id="paint14_linear_414_9679" x1="-3.96708" y1="32.5795" x2="35.6587" y2="32.5795" gradientUnits="userSpaceOnUse">
<stop stop-color="#F8F6F7"/>
<stop offset="1" stop-color="#D1CEEB"/>
</linearGradient>
<linearGradient id="paint15_linear_414_9679" x1="1.87983" y1="23.9801" x2="42.1927" y2="23.9801" gradientUnits="userSpaceOnUse">
<stop stop-color="#FBC56D"/>
<stop offset="0.5841" stop-color="#FE9738"/>
<stop offset="0.9984" stop-color="#FB2B3A"/>
</linearGradient>
<linearGradient id="paint16_linear_414_9679" x1="0.31563" y1="23.9798" x2="36.1093" y2="23.9798" gradientUnits="userSpaceOnUse">
<stop stop-color="#FBC56D"/>
<stop offset="0.5841" stop-color="#FE9738"/>
<stop offset="0.9984" stop-color="#FB2B3A"/>
</linearGradient>
<linearGradient id="paint17_linear_414_9679" x1="0.315329" y1="21.211" x2="36.109" y2="21.211" gradientUnits="userSpaceOnUse">
<stop stop-color="#FBC56D"/>
<stop offset="0.5841" stop-color="#FE9738"/>
<stop offset="0.9984" stop-color="#FB2B3A"/>
</linearGradient>
<clipPath id="clip0_414_9679">
<rect width="42" height="42" fill="white"/>
</clipPath>
</defs>
</svg>
