<svg width="25" height="19" viewBox="0 0 25 19" fill="none" xmlns="http://www.w3.org/2000/svg">
<g id="orange-snacks" clip-path="url(#clip0_414_9487)">
<g id="Layer 2">
<g id="Objects">
<path id="Vector" d="M9.78833 2.69534C9.78833 2.69534 12.3884 -0.339352 16.9568 1.35937C16.9568 1.35937 14.3552 5.77132 9.78833 2.69534Z" fill="#5C7732"/>
<path id="Vector_2" d="M9.78833 2.69534C9.78833 2.69534 12.3884 -0.339352 16.9568 1.35937C16.9568 1.35937 12.5918 2.37093 9.78833 2.69534Z" fill="#69893E"/>
<path id="Vector_3" d="M8.87842 5.4825L9.71348 0L10.6893 0.576562L9.34948 5.63438C9.18863 5.59555 9.03114 5.54477 8.87842 5.4825Z" fill="#69893E"/>
<path id="Vector_4" d="M16.8742 11.9014C16.8742 15.8238 11.1587 18.9441 6.67442 18.9441C2.19014 18.9441 0 15.5216 0 11.5992C0 7.67677 3.63698 4.49609 8.12278 4.49609C12.6086 4.49609 16.8742 7.97906 16.8742 11.9014Z" fill="#E87F18"/>
<path id="Vector_5" d="M7.64715 6.21669C8.69939 4.89989 11.4554 5.27886 12.9604 6.39659C14.4653 7.51432 14.2833 9.21157 13.2311 10.5254C12.1788 11.8393 10.1034 12 8.59845 10.8837C7.0935 9.76749 6.59185 7.53497 7.64715 6.21669Z" fill="#E89B34"/>
<path id="Vector_6" d="M17.2412 18.7181C15.765 18.7181 14.322 18.2961 13.0946 17.5054C11.8673 16.7147 10.9106 15.5908 10.3457 14.2759C9.78082 12.961 9.63302 11.5142 9.921 10.1183C10.209 8.72239 10.9198 7.4402 11.9636 6.43382C13.0074 5.42745 14.3373 4.7421 15.7851 4.46444C17.2329 4.18679 18.7336 4.32929 20.0974 4.87394C21.4612 5.41858 22.6268 6.3409 23.4469 7.52427C24.2671 8.70764 24.7048 10.0989 24.7048 11.5221C24.7028 13.43 23.9158 15.2592 22.5165 16.6083C21.1173 17.9574 19.22 18.7161 17.2412 18.7181Z" fill="#FFB506"/>
<path id="Vector_7" d="M17.2413 4.69531C15.8299 4.69531 14.4501 5.09884 13.2766 5.85487C12.103 6.6109 11.1883 7.68547 10.6482 8.9427C10.1081 10.1999 9.96675 11.5833 10.2421 12.918C10.5175 14.2527 11.1971 15.4787 12.1952 16.4409C13.1932 17.4031 14.4648 18.0584 15.8491 18.3239C17.2334 18.5894 18.6682 18.4531 19.9722 17.9324C21.2762 17.4116 22.3908 16.5297 23.1749 15.3983C23.959 14.2668 24.3776 12.9365 24.3776 11.5757C24.3756 9.75152 23.6231 8.00259 22.2852 6.71269C20.9473 5.42279 19.1333 4.69726 17.2413 4.69531ZM11.7017 8.70028C11.7216 8.64572 12.2676 7.29353 13.1332 7.0458C13.1984 7.02801 13.2659 7.01907 13.3336 7.01926C13.435 7.01947 13.5351 7.04049 13.6274 7.08092C13.7197 7.12134 13.802 7.18025 13.8689 7.25371L16.3909 10.6762C16.4185 10.7116 16.5592 10.9033 16.498 11.0183C16.483 11.0439 16.4604 11.0646 16.4332 11.0777C16.4059 11.0909 16.3753 11.0958 16.345 11.0921C16.2396 11.0845 16.1362 11.0601 16.0392 11.0198L11.9097 9.69267C11.8435 9.67368 11.7824 9.64102 11.7307 9.59697C11.6789 9.55291 11.6377 9.49852 11.6099 9.43757C11.5182 9.25915 11.5488 9.00699 11.7017 8.70028ZM11.2062 12.8291C10.6571 12.139 11.041 10.7367 11.0532 10.6762C11.1725 10.0643 11.483 9.97137 11.665 9.97137C11.7213 9.97162 11.7772 9.9811 11.8302 9.99939L15.981 11.2616C16.2349 11.3295 16.3542 11.4091 16.3557 11.5064C16.3557 11.645 16.1065 11.7276 16.0499 11.7438L11.9296 13.0842C11.8747 13.095 11.8189 13.1005 11.7629 13.1004C11.6546 13.1 11.5479 13.0752 11.4513 13.0281C11.3547 12.981 11.2708 12.9129 11.2062 12.8291ZM13.3336 16.1027C13.2657 16.1031 13.1982 16.0937 13.1332 16.0747C12.2676 15.8284 11.7216 14.4762 11.7002 14.4187C11.5472 14.112 11.5182 13.8598 11.6099 13.6814C11.6405 13.623 11.6836 13.5716 11.7363 13.5304C11.7891 13.4892 11.8502 13.4593 11.9158 13.4425L16.0453 12.108C16.1424 12.0682 16.2458 12.0443 16.3512 12.0373C16.3814 12.0335 16.4121 12.0385 16.4393 12.0516C16.4666 12.0647 16.4891 12.0854 16.5041 12.111C16.5653 12.226 16.4246 12.4177 16.397 12.4546L13.8735 15.8697C13.8061 15.944 13.7231 16.0037 13.6301 16.0449C13.537 16.0861 13.436 16.1078 13.3336 16.1086V16.1027ZM17.0776 17.0317C17.0806 17.0908 17.0715 17.1498 17.0507 17.2055C17.03 17.2611 16.9981 17.3123 16.9568 17.3561C16.8819 17.4242 16.7929 17.4762 16.6956 17.5087C16.5983 17.5412 16.495 17.5535 16.3925 17.5448C16.3188 17.544 16.2453 17.539 16.1722 17.5301C16.1126 17.5301 14.6091 17.4593 14.0922 16.7471C14.0153 16.6396 13.9715 16.5132 13.9661 16.3827C13.9607 16.2522 13.9938 16.1229 14.0616 16.0098L16.6249 12.6182C16.6509 12.5843 16.7779 12.4089 16.9094 12.4089C16.9269 12.4092 16.9442 12.4128 16.9602 12.4197C16.9762 12.4265 16.9907 12.4364 17.0027 12.4487C17.0623 12.5077 17.0853 12.63 17.0776 12.835V17.0317ZM17.0027 10.6674C16.9906 10.6795 16.9761 10.6891 16.9601 10.6957C16.9441 10.7023 16.9268 10.7057 16.9094 10.7057C16.784 10.7057 16.6509 10.5317 16.6249 10.4963L14.0708 7.1151C14.0027 7.00223 13.9692 6.8731 13.9741 6.74262C13.9789 6.61215 14.022 6.48567 14.0983 6.37781C14.6153 5.66559 16.1187 5.59628 16.1829 5.59481C16.2544 5.5857 16.3264 5.58078 16.3986 5.58006C16.5011 5.57135 16.6044 5.58366 16.7017 5.61619C16.799 5.64872 16.888 5.70073 16.9629 5.76881C17.0046 5.81324 17.0367 5.86516 17.0574 5.92159C17.0781 5.97803 17.0871 6.03786 17.0838 6.09764V10.2884C17.0853 10.4919 17.0623 10.6172 17.0027 10.6733V10.6674ZM21.2025 7.01041C21.2702 7.01013 21.3377 7.01906 21.4029 7.03695C22.2685 7.28468 22.8145 8.63687 22.8375 8.69438C22.9904 9.00109 23.0179 9.25325 22.9262 9.43167C22.896 9.49051 22.8531 9.54241 22.8003 9.58388C22.7475 9.62534 22.6861 9.6554 22.6203 9.67203L18.4908 10.9992C18.3937 11.039 18.2903 11.0629 18.1849 11.0699C18.1547 11.0737 18.124 11.0687 18.0968 11.0556C18.0695 11.0425 18.047 11.0218 18.032 10.9962C17.9724 10.8812 18.1115 10.6895 18.1406 10.6526L20.6641 7.25519C20.731 7.18069 20.8137 7.12083 20.9065 7.07964C20.9994 7.03844 21.1003 7.01685 21.2025 7.01631V7.01041ZM17.3499 10.3666L17.4416 6.17727C17.458 6.04627 17.5127 5.92247 17.5994 5.82036C17.6861 5.71825 17.8011 5.64206 17.9311 5.60071C18.051 5.5655 18.1758 5.5481 18.3012 5.5491C19.1118 5.5491 20.0432 6.1699 20.083 6.19644C20.3888 6.36749 20.5571 6.55919 20.5892 6.76268C20.5987 6.82654 20.5941 6.89161 20.5756 6.95363C20.5572 7.01564 20.5253 7.07318 20.4821 7.12248L17.8439 10.4609C17.7139 10.6408 17.6099 10.7249 17.5212 10.7249C17.5036 10.7249 17.4862 10.7214 17.4701 10.7145C17.4541 10.7077 17.4397 10.6976 17.4279 10.6851C17.3664 10.59 17.339 10.4781 17.3499 10.3666ZM20.5892 16.3681C20.5571 16.5716 20.3858 16.7633 20.0784 16.9373C20.0432 16.9609 19.1118 17.5817 18.3012 17.5817C18.1758 17.5827 18.051 17.5653 17.9311 17.5301C17.8022 17.4895 17.6879 17.4145 17.6015 17.3137C17.5151 17.2129 17.4602 17.0906 17.4432 16.9609L17.3499 12.7628C17.3392 12.6517 17.3666 12.5403 17.4279 12.4457C17.4397 12.4332 17.4541 12.4231 17.4701 12.4163C17.4862 12.4094 17.5036 12.4059 17.5212 12.4059C17.6099 12.4059 17.7139 12.49 17.8454 12.6713L20.4852 16.0113C20.5276 16.0603 20.5588 16.1175 20.5767 16.179C20.5946 16.2405 20.5989 16.3049 20.5892 16.3681ZM22.8359 14.4335C22.8145 14.488 22.2685 15.8402 21.4044 16.0865C21.3389 16.1055 21.2709 16.1149 21.2025 16.1145C21.1014 16.114 21.0016 16.0928 20.9096 16.0524C20.8176 16.012 20.7355 15.9532 20.6687 15.88L18.1452 12.4575C18.1176 12.4221 17.9785 12.2304 18.0381 12.1154C18.0531 12.0898 18.0757 12.0692 18.1029 12.056C18.1301 12.0429 18.1608 12.0379 18.1911 12.0417C18.2965 12.0492 18.3999 12.0736 18.4969 12.1139L22.6264 13.4411C22.6898 13.4587 22.7487 13.4889 22.7993 13.5298C22.8499 13.5707 22.891 13.6213 22.92 13.6785C23.0179 13.8613 22.9889 14.1179 22.8359 14.4276V14.4335ZM22.7702 13.2125C22.7188 13.2118 22.6676 13.2063 22.6172 13.1963L18.4878 11.8603C18.4388 11.8456 18.1819 11.7615 18.1895 11.6229C18.1895 11.5241 18.3119 11.446 18.5658 11.3796L22.7197 10.1144C22.7687 10.0972 22.8205 10.0883 22.8726 10.0879C23.047 10.0879 23.359 10.1808 23.4844 10.7971C23.4997 10.8532 23.8836 12.2555 23.3315 12.9471C23.2649 13.029 23.1796 13.0951 23.0823 13.1401C22.9849 13.1851 22.8781 13.2079 22.7702 13.2066V13.2125Z" fill="#FFFFCF"/>
<path id="Vector_8" d="M17.2351 4.29541C13.1209 4.29541 9.70264 7.25932 9.70264 11.2259C9.70264 15.1926 12.7064 19 16.8236 19C20.9409 19 25.0015 15.5922 25.0015 11.627C25.0015 7.66188 21.3507 4.29541 17.2351 4.29541ZM17.2351 18.4514C15.8237 18.4502 14.4444 18.0456 13.2715 17.2887C12.0987 16.5317 11.185 15.4565 10.6459 14.1989C10.1068 12.9413 9.96667 11.5579 10.2431 10.2235C10.5195 8.88906 11.2001 7.66365 12.1988 6.70218C13.1976 5.7407 14.4696 5.08634 15.854 4.82184C17.2385 4.55733 18.6732 4.69456 19.9767 5.21618C21.2803 5.73779 22.3941 6.62036 23.1775 7.75229C23.9608 8.88422 24.3784 10.2147 24.3775 11.5754C24.3755 13.3996 23.6229 15.1485 22.2851 16.4384C20.9472 17.7284 19.1332 18.4539 17.2412 18.4558L17.2351 18.4514Z" fill="#F38E1C"/>
<path id="Vector_9" d="M16.9569 5.76275C16.8819 5.69468 16.7929 5.64267 16.6956 5.61013C16.5984 5.5776 16.4951 5.56529 16.3925 5.574C16.3204 5.57472 16.2484 5.57965 16.1769 5.58875C16.1126 5.58875 14.6092 5.65953 14.0922 6.37175C14.0159 6.47961 13.9729 6.60609 13.968 6.73656C13.9631 6.86704 13.9967 6.99618 14.0647 7.10904L16.625 10.5006C16.651 10.536 16.7779 10.71 16.9095 10.71C16.9269 10.7099 16.9441 10.7065 16.9601 10.6999C16.9762 10.6934 16.9907 10.6837 17.0027 10.6716C17.0624 10.6127 17.0853 10.4903 17.0777 10.2868V6.09158C17.081 6.0318 17.0721 5.97197 17.0513 5.91554C17.0306 5.8591 16.9985 5.80718 16.9569 5.76275Z" fill="#FFB506"/>
<path id="Vector_10" d="M20.5891 6.76245C20.5569 6.55896 20.3857 6.36726 20.0828 6.19621C20.0431 6.16967 19.1116 5.54887 18.301 5.54887C18.1757 5.54787 18.0509 5.56527 17.9309 5.60048C17.801 5.64183 17.6859 5.71803 17.5992 5.82013C17.5126 5.92224 17.4579 6.04604 17.4415 6.17704L17.3497 10.3663C17.3389 10.4779 17.3663 10.5898 17.4277 10.6848C17.4395 10.6974 17.4539 10.7074 17.47 10.7143C17.4861 10.7212 17.5035 10.7247 17.521 10.7247C17.6097 10.7247 17.7137 10.6406 17.8437 10.4607L20.482 7.12225C20.5252 7.07296 20.557 7.01541 20.5755 6.9534C20.5939 6.89139 20.5986 6.82631 20.5891 6.76245Z" fill="#FFB506"/>
<path id="Vector_11" d="M22.8375 8.7C22.8145 8.6425 22.2685 7.2903 21.4029 7.04257C21.2716 7.00651 21.1323 7.00733 21.0014 7.04494C20.8706 7.08256 20.7536 7.1554 20.6642 7.25491L18.1467 10.6715C18.1177 10.7084 17.9785 10.9001 18.0381 11.0151C18.0531 11.0407 18.0757 11.0614 18.1029 11.0745C18.1302 11.0876 18.1609 11.0926 18.1911 11.0888C18.2964 11.0818 18.3998 11.0579 18.497 11.0181L22.6264 9.69093C22.6923 9.6743 22.7537 9.64424 22.8064 9.60277C22.8592 9.56131 22.9021 9.5094 22.9323 9.45057C23.018 9.25887 22.9889 9.00672 22.8375 8.7Z" fill="#FFB506"/>
<path id="Vector_12" d="M16.3907 10.6731L13.8687 7.25057C13.8018 7.17711 13.7195 7.1182 13.6272 7.07778C13.5349 7.03735 13.4348 7.01633 13.3334 7.01612C13.2656 7.01593 13.1982 7.02487 13.133 7.04266C12.2674 7.29039 11.7214 8.64258 11.7015 8.70009C11.5485 9.00975 11.518 9.26191 11.6097 9.44623C11.6387 9.50355 11.6799 9.5544 11.7304 9.59553C11.781 9.63666 11.8399 9.66717 11.9034 9.68511L16.0328 11.0122C16.1299 11.0525 16.2333 11.077 16.3387 11.0845C16.3689 11.0883 16.3996 11.0833 16.4269 11.0702C16.4541 11.057 16.4767 11.0363 16.4917 11.0108C16.5589 10.9002 16.4182 10.7085 16.3907 10.6731Z" fill="#FFB506"/>
<path id="Vector_13" d="M17.0774 17.0374V12.8378C17.0774 12.6328 17.0621 12.5104 17.0025 12.4514C16.9905 12.4391 16.976 12.4293 16.96 12.4225C16.944 12.4156 16.9267 12.4119 16.9092 12.4116C16.7838 12.4116 16.6507 12.5871 16.6247 12.621L14.0614 16.0126C13.9936 16.1256 13.9605 16.255 13.9659 16.3855C13.9713 16.516 14.015 16.6423 14.092 16.7498C14.6089 17.4621 16.1124 17.5314 16.172 17.5328C16.2451 17.5418 16.3186 17.5467 16.3922 17.5476C16.4948 17.5563 16.5981 17.544 16.6954 17.5115C16.7926 17.4789 16.8817 17.4269 16.9566 17.3588C17.0392 17.2712 17.0826 17.1557 17.0774 17.0374Z" fill="#FFB506"/>
<path id="Vector_14" d="M20.485 16.0053L17.8452 12.6653C17.7137 12.484 17.6097 12.3999 17.521 12.3999C17.5034 12.3999 17.486 12.4034 17.4699 12.4102C17.4538 12.4171 17.4394 12.4271 17.4277 12.4397C17.3664 12.5343 17.339 12.6457 17.3497 12.7568L17.443 16.9549C17.46 17.0846 17.5149 17.2069 17.6013 17.3077C17.6877 17.4085 17.8019 17.4835 17.9308 17.5241C18.0508 17.5593 18.1756 17.5767 18.301 17.5757C19.1116 17.5757 20.043 16.9549 20.0782 16.9313C20.384 16.7573 20.5569 16.5656 20.589 16.3621C20.5986 16.2989 20.5944 16.2345 20.5765 16.173C20.5585 16.1115 20.5274 16.0543 20.485 16.0053Z" fill="#FFB506"/>
<path id="Vector_15" d="M22.9261 13.6795C22.8973 13.6227 22.8567 13.5722 22.8067 13.5313C22.7566 13.4905 22.6983 13.4601 22.6355 13.4421L18.506 12.115C18.4089 12.0747 18.3055 12.0503 18.2001 12.0427C18.1699 12.0389 18.1392 12.0439 18.112 12.0571C18.0847 12.0702 18.0622 12.0909 18.0472 12.1165C17.9875 12.2315 18.1267 12.4232 18.1542 12.4586L20.6778 15.8811C20.7445 15.9543 20.8266 16.013 20.9186 16.0534C21.0106 16.0939 21.1105 16.115 21.2116 16.1155C21.2799 16.116 21.348 16.1065 21.4135 16.0875C22.2776 15.8413 22.8236 14.4891 22.845 14.4345C22.9888 14.1175 23.0178 13.8609 22.9261 13.6795Z" fill="#FFB506"/>
<path id="Vector_16" d="M23.4812 10.7908C23.3619 10.1744 23.0499 10.0815 22.8694 10.0815C22.8172 10.0819 22.7655 10.0909 22.7164 10.1081L18.5625 11.3733C18.3086 11.4396 18.1893 11.5207 18.1863 11.6166C18.1863 11.7552 18.4356 11.8392 18.4845 11.854L22.614 13.19C22.6643 13.2 22.7155 13.2054 22.7669 13.2062C22.8754 13.2068 22.9825 13.1831 23.0799 13.137C23.1773 13.091 23.2623 13.0238 23.3282 12.9408C23.8803 12.2492 23.4964 10.8469 23.4812 10.7908Z" fill="#FFB506"/>
<path id="Vector_17" d="M16.4979 12.1091C16.4829 12.0836 16.4603 12.0629 16.4331 12.0497C16.4058 12.0366 16.3751 12.0316 16.3449 12.0354C16.2396 12.0425 16.1362 12.0664 16.039 12.1062L11.9096 13.4407C11.844 13.4574 11.7828 13.4874 11.7301 13.5285C11.6774 13.5697 11.6343 13.6212 11.6037 13.6796C11.5119 13.8654 11.5425 14.122 11.6939 14.4169C11.7153 14.4744 12.2614 15.8266 13.127 16.0728C13.192 16.0918 13.2595 16.1013 13.3274 16.1008C13.4297 16.1 13.5308 16.0783 13.6239 16.0372C13.7169 15.996 13.7999 15.9363 13.8673 15.862L16.3847 12.4453C16.4183 12.4159 16.559 12.2242 16.4979 12.1091Z" fill="#FFB506"/>
<path id="Vector_18" d="M15.978 11.2673L11.8272 10.0051C11.7742 9.98678 11.7183 9.9773 11.662 9.97705C11.4876 9.97705 11.1772 10.0699 11.0502 10.6819C11.0334 10.7424 10.6495 12.1447 11.2032 12.8348C11.2689 12.9181 11.3538 12.9855 11.4512 13.0315C11.5487 13.0776 11.6559 13.1011 11.7645 13.1002C11.8199 13.1001 11.8753 13.0947 11.9296 13.084L16.0499 11.7569C16.0989 11.7407 16.3558 11.6581 16.3558 11.5195C16.3512 11.4133 16.2319 11.3351 15.978 11.2673Z" fill="#FFB506"/>
</g>
</g>
</g>
<defs>
<clipPath id="clip0_414_9487">
<rect width="25" height="19" fill="white"/>
</clipPath>
</defs>
</svg>
