<svg width="46" height="45" viewBox="0 0 46 45" fill="none" xmlns="http://www.w3.org/2000/svg">
<g id="pancake 2" clip-path="url(#clip0_414_9509)">
<g id="Layer 2">
<g id="OBJECTS">
<path id="Vector" opacity="0.27" d="M45.7019 35.6101C45.7019 40.6447 35.4097 45.2535 22.7849 44.9896C8.43665 44.6896 -0.00508881 40.2698 -0.00508881 35.2353C-0.00508881 30.2007 10.1979 26.9824 22.8206 26.9824C35.4433 26.9824 45.7019 30.5744 45.7019 35.6101Z" fill="black"/>
<path id="Vector_2" d="M46 35.0744C46 40.1091 35.7078 44.7179 23.083 44.454C8.73475 44.1539 0.293011 39.7342 0.293011 34.6996C0.293011 29.665 10.5023 26.4468 23.1239 26.4468C35.7456 26.4468 46 30.0398 46 35.0744Z" fill="#B22F5D"/>
<path id="Vector_3" d="M45.9802 34.5114C45.9802 39.5472 36.2331 43.4834 23.6125 43.4834C10.9919 43.4834 0.267986 39.5528 0.267986 34.5171C0.267986 29.4814 10.5014 25.4014 23.1241 25.4014C35.7468 25.4014 45.9802 29.4768 45.9802 34.5114Z" fill="url(#paint0_linear_414_9509)"/>
<path id="Vector_4" d="M45.2051 34.5069C45.2051 39.1656 35.8129 42.804 23.6533 42.804C11.4938 42.804 1.15535 39.1656 1.15535 34.5069C1.15535 29.8483 11.0149 26.0718 23.1776 26.0718C35.3403 26.0718 45.2051 29.8483 45.2051 34.5069Z" fill="#B22F5D"/>
<path id="Vector_5" d="M44.3511 34.7182C44.3511 39.1175 35.2992 42.5532 23.5734 42.5532C11.8476 42.5532 1.89035 39.1175 1.89035 34.7182C1.89035 30.3188 11.396 26.7529 23.1228 26.7529C34.8497 26.7529 44.3511 30.3188 44.3511 34.7182Z" fill="url(#paint1_linear_414_9509)"/>
<path id="Vector_6" d="M39.1116 35.5374L38.1517 38.0366L32.2893 39.9651L25.8314 40.6434L21.1947 40.3218L18.1815 39.4294L14.5719 37.929L39.0454 32.9307L39.1116 35.5374Z" fill="#914004"/>
<path id="Vector_7" d="M41.9924 35.5374C41.9924 35.5374 42.1258 35.466 40.9327 35.1795C39.7396 34.8931 41.0661 34.2521 40.7342 32.9657C40.4023 31.6793 37.886 31.2535 36.1647 31.5378C34.4433 31.822 35.8989 35.0369 35.8989 35.0369L38.0855 36.68L41.9924 35.5374Z" fill="#914004"/>
<path id="Vector_8" d="M38.8134 32.5374C38.8134 32.5374 39.0791 33.3947 38.7472 35.108C38.4153 36.8213 36.297 38.2503 34.5085 38.5368C32.72 38.8233 27.9509 39.6794 25.4345 39.6794C22.9182 39.6794 19.4734 39.3216 17.6187 38.8935C15.764 38.4655 10.7303 37.0364 9.60445 36.8224C8.47861 36.6084 6.3582 35.3231 5.89505 34.8973C5.4319 34.4716 5.29852 32.6835 5.69655 32.2555C6.09459 31.8274 9.28938 32.5227 9.28938 32.5227L38.8134 32.5374Z" fill="#FFEDC4"/>
<path id="Vector_9" d="M34.856 30.5193C34.856 30.5193 37.3062 30.5907 38.4993 31.8782C39.6923 33.1657 38.3669 36.0556 34.7184 37.0555C31.0699 38.0554 22.2995 38.3407 19.2528 37.8051C16.206 37.2695 10.9402 35.7668 9.64841 35.3773C8.35663 34.9877 4.71233 33.0921 5.87284 31.449C7.03334 29.8059 34.856 30.5193 34.856 30.5193Z" fill="url(#paint2_linear_414_9509)"/>
<path id="Vector_10" d="M36.1141 30.3484C36.1141 30.3484 36.2632 30.7764 35.4189 31.5804C34.5745 32.3844 33.6335 32.5441 32.7859 32.6516C31.9384 32.7592 30.6004 34.1509 28.2164 34.365C25.8324 34.579 22.9999 34.9538 18.1342 35.2222C13.2685 35.4905 9.24189 33.074 8.09714 32.86C6.95239 32.646 5.26152 31.628 5.11659 30.8217C4.97165 30.0154 5.21636 29.1084 5.21636 29.1084L36.1141 30.3484Z" fill="#FFEDC4"/>
<path id="Vector_11" d="M24.9209 33.2687C24.9209 33.2687 22.3373 33.4476 19.9197 33.6979C17.5021 33.9481 13.8284 34.2335 9.28928 32.5191C4.75019 30.8046 4.05704 28.4844 6.83909 27.7347C9.62115 26.9851 28.5305 32.6617 28.5305 32.6617C28.5305 32.6617 27.4372 33.2687 24.9209 33.2687Z" fill="#E2952C"/>
<path id="Vector_12" opacity="0.18" d="M36.7108 23.9312C37.103 24.3835 37.5174 24.8129 37.9522 25.2175C38.6485 25.8596 37.3567 25.931 37.007 27.377C36.6573 28.8231 36.9219 29.4153 36.088 30.2873C34.8278 31.6087 33.0424 31.7967 31.2192 32.5101C29.4821 33.1896 26.8198 33.9154 24.3927 33.7693C20.5352 33.5372 18.2499 34.0196 16.7596 33.7512C15.2694 33.4829 13.7969 32.6188 12.4211 32.1353C10.4341 31.4389 9.55507 30.6372 8.34731 29.7697C5.51169 27.7314 6.56192 26.7701 6.56192 26.1812C6.56192 25.5924 7.45566 26.068 8.84617 25.1621C10.2367 24.2561 36.7108 23.9312 36.7108 23.9312Z" fill="black"/>
<path id="Vector_13" d="M36.711 23.7534C37.1034 24.2052 37.5178 24.6343 37.9524 25.0387C38.6487 25.6819 39.1948 26.1631 38.8472 27.6092C38.4995 29.0553 37.3065 29.5343 36.4127 30.3417C35.519 31.1491 32.5878 33.1806 30.7499 33.3991C28.912 33.6177 27.2726 33.8804 24.8382 33.9347C22.4037 33.9891 18.6786 33.6131 17.1883 33.3448C15.698 33.0764 13.4967 32.1671 12.121 31.6847C10.1339 30.9883 9.55314 30.464 8.34013 29.5954C5.50451 27.5571 6.55474 26.5968 6.55474 26.0069C6.55474 25.4169 7.44848 25.9004 8.83899 24.9877C10.2295 24.075 36.711 23.7534 36.711 23.7534Z" fill="#FFEDC4"/>
<path id="Vector_14" d="M36.4122 23.522C36.4122 23.522 38.5316 24.3792 38.8582 26.0574C39.1848 27.7356 36.7714 29.4851 35.1488 29.9132C33.5262 30.3412 31.9697 31.9515 29.32 32.4848C26.6703 33.0182 22.9945 32.8053 19.6831 32.6275C16.3718 32.4497 12.7285 31.2686 10.6753 30.1272C8.62212 28.9857 6.30322 28.4852 6.46915 26.4141C6.63509 24.343 8.78701 24.3067 8.78701 24.3067L36.4122 23.522Z" fill="url(#paint3_linear_414_9509)"/>
<path id="Vector_15" opacity="0.18" d="M37.5874 24.2183C37.5874 24.2183 37.3564 25.9316 34.4084 26.8601C31.4604 27.7887 28.4809 27.9495 27.1229 27.8793C25.765 27.8091 23.5963 28.022 21.5095 27.9857C19.4227 27.9495 15.2007 26.6472 14.3732 26.6472C13.5456 26.6472 10.2657 25.8263 9.13987 25.6836C8.01402 25.5409 7.35448 24.755 7.64959 24.5761C7.94471 24.3972 12.2527 25.3257 12.2527 25.3257L20.4004 26.611L30.7326 26.5046L35.7999 25.3971L37.5853 24.2194" fill="black"/>
<path id="Vector_16" d="M37.9521 22.5486C37.9521 22.5486 38.0519 23.9958 37.0909 24.8258C36.6877 25.1746 34.2438 27.1823 29.8717 27.111C25.4996 27.0396 22.3216 27.6104 18.546 26.897C14.7704 26.1835 11.6576 25.683 9.67052 25.2527C7.68349 24.8224 5.63029 23.5394 5.96111 21.6109C6.29193 19.6825 37.9521 22.5486 37.9521 22.5486Z" fill="#FFEDC4"/>
<path id="Vector_17" d="M36.1479 19.9502C36.1479 19.9502 37.9333 20.2367 38.0026 22.0927C38.0719 23.9487 34.6902 25.5917 30.9818 25.8782C27.2735 26.1647 23.96 26.2349 19.9859 25.8069C16.0119 25.3789 12.2374 25.0924 9.25681 23.9498C6.27627 22.8072 4.81855 20.9501 7.20362 20.8074C9.58868 20.6647 36.1479 19.9502 36.1479 19.9502Z" fill="#E2802C"/>
<path id="Vector_18" d="M37.6044 18.3791C37.6044 18.3791 38.0518 18.9679 37.3566 20.5748C36.6613 22.1817 34.0777 22.9857 32.9845 23.3605C31.8912 23.7353 28.5136 24.3241 26.6264 25.0206C24.7391 25.717 22.9002 25.3954 21.3112 25.1281C19.7222 24.8609 16.8897 24.2222 15.4992 24.0569C14.1087 23.8916 10.4812 23.6821 7.89869 21.7004C5.31618 19.7187 5.4149 18.0043 5.56614 17.2546C5.71737 16.505 37.6044 18.3791 37.6044 18.3791Z" fill="#FFEDC4"/>
<path id="Vector_19" d="M36.6109 15.5942C36.6109 15.5942 38.3963 17.5193 37.3398 20.0219C36.2832 22.5244 32.9025 22.3082 29.7886 23.5221C26.6747 24.736 21.5097 24.2332 18.5291 23.667C15.5486 23.1008 12.7665 23.8097 8.65697 21.2392C4.54743 18.6687 5.21328 16.0302 6.73611 16.0302C8.25894 16.0302 36.6109 15.5942 36.6109 15.5942Z" fill="url(#paint4_radial_414_9509)"/>
<path id="Vector_20" d="M38.052 15.273C38.052 15.273 38.3996 16.3443 37.655 17.0939C36.9104 17.8436 33.681 19.182 32.1938 20.0381C30.7067 20.8942 26.0332 22.1806 20.9669 21.431C15.9006 20.6813 13.1679 20.3597 11.7249 20.1989C10.2819 20.0381 8.19821 19.7165 6.75729 18.5388C6.22048 18.1031 5.77474 17.5505 5.44904 16.9168C5.12335 16.2831 4.925 15.5826 4.86688 14.8609C4.81752 14.0036 9.58661 14.3785 9.58661 14.3785L38.0478 15.2719" fill="#FFEDC4"/>
<path id="Vector_21" d="M34.6238 11.3804C34.6238 11.3804 37.9362 11.7382 38.0685 14.5228C38.2008 17.3073 35.0228 17.5938 32.7691 18.665C30.5153 19.7363 24.5563 20.7362 21.3772 20.4508C18.1982 20.1654 14.8858 19.2369 11.5051 19.0919C8.1244 18.947 6.93449 16.8781 5.87481 16.1636C4.81514 15.449 4.35198 14.5205 5.80865 13.3779C7.26532 12.2353 34.6238 11.3804 34.6238 11.3804Z" fill="url(#paint5_radial_414_9509)"/>
<path id="Vector_22" d="M37.8862 33.9715C37.8862 33.9715 38.3504 32.7576 36.9588 32.6126C35.5672 32.4677 34.6409 33.1788 33.5151 33.3272C32.3893 33.4755 29.8057 34.1833 28.2167 34.3622C26.6277 34.5411 22.3218 34.9691 22.3218 34.9691C22.3218 34.9691 21.5267 35.6123 23.3814 35.8264C25.2362 36.0404 30.9315 36.3257 31.3296 37.3256C31.7276 38.3255 30.9977 39.1114 30.5346 39.3254C30.0714 39.5395 27.2893 39.8611 26.2286 39.9324C25.1679 40.0037 20.863 39.826 18.6775 39.253C16.4919 38.68 13.4452 37.7537 12.4517 37.611C12.4517 37.611 15.5646 38.6822 17.0213 39.3243C18.4779 39.9664 22.2546 41.3954 25.4336 41.1814C28.6126 40.9674 30.6669 40.5394 32.4523 40.3933C34.2377 40.2472 38.0321 39.3436 40.0696 38.4682C42.0566 37.6121 42.9167 36.6122 42.3874 35.7505C41.8581 34.8887 40.0024 35.7505 39.9362 35.1073C39.87 34.4641 38.9248 34.6238 38.7442 35.8581C38.6455 36.5375 37.5522 38.2497 32.3861 39.1069C32.3861 39.1069 31.9219 38.8215 32.0542 38.0356C32.1866 37.2498 32.7169 37.5363 34.6378 36.8217C36.5587 36.1072 37.4934 35.4663 37.8862 33.9715Z" fill="#914004"/>
<path id="Vector_23" d="M25.1026 6.11389C23.804 6.11389 22.7512 5.92225 22.7512 5.68585C22.7512 5.44945 23.804 5.25781 25.1026 5.25781C26.4013 5.25781 27.4541 5.44945 27.4541 5.68585C27.4541 5.92225 26.4013 6.11389 25.1026 6.11389Z" fill="#6C3200"/>
<path id="Vector_24" opacity="0.18" d="M30.7991 18.0847C30.6499 18.1289 26.9248 19.6825 22.3048 19.2001C17.6849 18.7177 15.2998 17.326 14.3063 17.2185C13.3128 17.1109 9.19062 15.6116 8.09733 15.3444C7.00405 15.0771 5.51377 14.058 6.35816 13.1475C7.20254 12.2371 30.7991 18.0847 30.7991 18.0847Z" fill="black"/>
<path id="Vector_25" d="M37.8284 13.5767C37.8284 13.5767 37.7538 14.4419 37.4555 14.6831C37.1573 14.9243 37.4555 15.1122 36.984 15.4599C36.5124 15.8075 33.4069 17.3849 30.7992 18.0848C28.1915 18.7846 25.2109 19.2364 21.4606 18.5128C17.7102 17.7892 16.2441 17.0135 14.2822 16.4507C12.3204 15.8879 9.71166 14.9514 8.27074 14.5766C6.82983 14.2018 6.63239 13.7454 6.45805 13.425C6.28371 13.1045 6.23435 12.3798 6.50741 12.219C6.78047 12.0582 10.2084 13.3446 10.2084 13.3446L23.4476 14.1746L37.8284 13.5767Z" fill="#FFEDC4"/>
<path id="Vector_26" d="M36.8632 10.5596C36.8632 10.5596 37.6078 10.9344 37.8084 12.3805C38.009 13.8265 37.7591 14.4188 36.4179 14.8978C35.0768 15.3768 32.593 16.9361 29.2648 17.5226C25.9366 18.1092 23.0055 17.7366 18.4349 16.7198C13.8643 15.7029 10.388 14.0417 8.79797 13.7201C7.20792 13.3985 6.21545 12.5945 6.56308 12.0589C6.91071 11.5232 9.54363 11.5232 9.54363 11.5232L36.8632 10.5596Z" fill="url(#paint6_radial_414_9509)"/>
<path id="Vector_27" d="M35.692 11.7285C35.692 11.7285 38.0183 12.3978 37.8198 13.4747C37.6213 14.5516 34.8392 15.5458 34.3099 15.7598C33.7806 15.9738 33.6472 17.0451 34.1104 17.0451C34.5735 17.0451 35.9651 16.3317 36.0312 16.9737C36.0974 17.6158 33.747 18.0812 32.7692 18.6723C31.7915 19.2634 31.0637 20.4762 31.8587 20.4049C32.6537 20.3335 35.5765 19.9757 35.2457 21.1896C34.9148 22.4035 33.3164 22.0468 31.3294 23.0467C29.3423 24.0466 30.9975 24.4056 32.1905 24.118C34.102 23.665 35.3696 25.0465 32.6537 25.5459C29.9378 26.0453 29.4064 26.3239 29.6732 27.1766C29.9399 28.0293 32.5875 27.8198 33.3826 28.1765C34.1776 28.5332 34.1104 29.8184 32.1905 30.4616C30.2707 31.1048 29.5408 30.1763 28.2826 30.747C27.0245 31.3177 25.3021 31.4615 24.7056 30.4616C24.109 29.4617 26.3618 28.3905 27.2891 27.8911C28.2165 27.3917 29.5408 27.0339 28.6796 26.3907C27.8184 25.7475 26.4941 26.3907 26.5603 25.6048C26.6264 24.8189 28.6796 24.8914 29.21 24.3195C29.7404 23.7477 29.5408 23.0343 27.7523 23.177C25.9637 23.3196 25.6256 22.3152 26.7504 21.7411C27.8752 21.167 29.8716 21.2496 30.3358 20.6789C30.8 20.1082 31.3294 18.8218 30.5343 18.8218C29.7393 18.8218 28.5883 20.0051 28.1661 19.3302C27.8374 18.8059 29.9378 18.3394 30.799 18.0846C31.6602 17.8298 33.0969 17.3123 33.0969 17.3123C33.0969 17.3123 33.8457 16.8967 33.2502 15.7542C32.6547 14.6116 30.9313 15.8255 28.9443 15.0408C26.9573 14.256 28.8813 12.7329 31.1918 12.5178C32.7068 12.3653 34.2103 12.1016 35.692 11.7285Z" fill="#914004"/>
<path id="Vector_28" opacity="0.18" d="M37.3066 10.8984L37.6553 11.6481C37.6553 11.6481 35.7649 13.2549 30.9485 13.2017C26.1322 13.1485 24.8383 13.469 23.5465 12.9333C22.2547 12.3977 18.1326 12.8201 17.2378 12.8201C16.343 12.8201 11.7766 12.4996 10.3325 11.964C8.88847 11.4284 37.3066 10.8984 37.3066 10.8984Z" fill="black"/>
<path id="Vector_29" d="M39.0946 6.91797C39.0941 7.12784 39.0607 7.3361 38.9958 7.53399C38.8908 7.77405 39.1943 8.15001 39.1943 8.76603C39.1943 9.38204 38.6482 10.2381 36.7105 11.2833C34.7729 12.3285 31.8921 12.5414 28.2657 12.675C24.6392 12.8086 25.5351 12.3806 20.5654 12.1938C15.5957 12.0069 16.9148 12.8098 11.6489 12.1666C6.3831 11.5234 6.28333 10.6945 6.1594 10.4793C6.03547 10.2642 5.88108 9.43527 5.98611 9.17255C6.09113 8.90984 8.04771 8.53049 8.04771 8.53049L39.0946 6.91797Z" fill="#FFEDC4"/>
<path id="Vector_30" d="M38.6975 7.81309C38.6975 7.81309 38.5316 7.59907 38.9296 7.2469C39.3277 6.89473 38.9958 5.96164 37.8027 4.99798C36.6097 4.03431 31.7114 1.8556 23.298 2.24854C14.8846 2.64148 8.9582 5.70345 7.89852 6.52444C6.83884 7.34542 6.04382 7.98861 6.07637 8.88093C6.07637 8.88093 5.67939 9.52413 6.80523 9.66681C7.93108 9.80949 9.91811 10.1662 11.7728 10.4516C13.6275 10.7369 18.8272 11.0178 21.8403 10.7381C24.8534 10.4584 27.2385 11.2737 31.3785 10.8807C35.5185 10.4878 37.8773 9.95444 38.6975 8.88093C39.1607 8.27397 38.6975 7.81309 38.6975 7.81309Z" fill="url(#paint7_linear_414_9509)"/>
<path id="Vector_31" d="M25.8357 4.57847C25.8357 4.57847 30.6541 4.52525 30.2571 5.52968C29.8601 6.53411 28.3195 5.79352 27.724 7.0618C27.1285 8.33007 31.6476 7.85447 33.2902 7.80125C34.9327 7.74803 36.0649 8.91778 35.6553 10.0422C35.1081 11.5427 34.2595 11.2992 34.8393 11.9673C34.897 12.0341 34.3761 12.11 34.3761 12.11C34.3761 12.11 34.1031 11.9265 34.4255 11.0195C34.8015 9.96524 32.6401 9.5406 30.7003 9.85767C28.7605 10.1747 22.8016 10.228 21.013 10.3333C19.2245 10.4386 16.6913 10.6503 16.1452 9.96298C15.5991 9.27562 17.4863 9.75575 17.2868 8.75132C17.0873 7.74689 14.8534 8.48748 12.1711 8.11832C9.48886 7.74916 10.6305 6.2159 12.1711 5.79352C13.7118 5.37114 10.1841 5.42323 8.49534 6.26913C6.80657 7.11502 7.84945 5.63499 9.83648 4.94763C11.8235 4.26027 16.3941 4.63169 19.3747 4.84232C22.3552 5.05294 23.1985 4.63169 25.8357 4.57847Z" fill="#914004"/>
<path id="Vector_32" opacity="0.18" d="M6.75599 18.5403C8.1969 19.718 10.2827 20.0396 11.7236 20.2004C13.1645 20.3612 15.8961 20.6828 20.9656 21.4324C26.035 22.1821 30.7022 20.8968 32.1925 20.0396C33.5452 19.2617 36.3325 18.0862 37.3911 17.3151L37.5077 17.3264C37.5077 17.3264 37.6064 17.6118 37.6064 18.3795C37.6064 19.1473 35.2224 19.4689 33.8256 20.1109C32.4288 20.753 29.1069 21.8967 26.6232 22.1821C24.1394 22.4674 20.5129 22.2534 18.3768 21.8786C16.2406 21.5038 12.3663 20.7541 11.3224 20.8595C10.2785 20.9648 5.56083 20.2933 5.56083 17.2539C5.56117 17.2191 5.56576 17.1844 5.57448 17.1509C5.88618 17.6881 6.28665 18.159 6.75599 18.5403Z" fill="black"/>
<path id="Vector_33" opacity="0.18" d="M32.9843 23.3604C34.0776 22.9856 36.6601 22.1816 37.3564 20.5747C37.3564 20.5747 37.7534 20.8068 37.9519 21.5033C37.9519 21.5033 36.3629 23.0037 34.7235 23.4283C33.0841 23.853 31.6936 24.4475 30.5509 24.0715C30.5287 24.0669 30.5078 24.057 30.4896 24.0425C30.4714 24.028 30.4565 24.0093 30.4459 23.9877C31.5256 23.7443 32.4897 23.5302 32.9843 23.3604Z" fill="black"/>
<path id="Vector_34" d="M32.242 7.76589C32.242 7.83525 32.2612 7.90303 32.2971 7.96056C32.3331 8.0181 32.3841 8.06278 32.4437 8.08889C32.5033 8.115 32.5687 8.12136 32.6317 8.10715C32.6947 8.09294 32.7523 8.05881 32.7972 8.00912C32.842 7.95944 32.8722 7.89645 32.8837 7.8282C32.8952 7.75996 32.8876 7.68957 32.8618 7.62602C32.836 7.56247 32.7933 7.50865 32.739 7.47143C32.6847 7.43422 32.6214 7.41531 32.557 7.41711C32.4726 7.41919 32.3923 7.45688 32.3334 7.5221C32.2745 7.58731 32.2417 7.67485 32.242 7.76589Z" fill="#D72F5D"/>
<path id="Vector_35" d="M29.8551 8.99705C29.677 8.99705 29.5326 8.8414 29.5326 8.6494C29.5326 8.4574 29.677 8.30176 29.8551 8.30176C30.0331 8.30176 30.1775 8.4574 30.1775 8.6494C30.1775 8.8414 30.0331 8.99705 29.8551 8.99705Z" fill="#F6605D"/>
<path id="Vector_36" d="M28.7867 8.00535C28.7864 8.07438 28.8052 8.14193 28.8407 8.19943C28.8761 8.25693 28.9265 8.30181 28.9856 8.32838C29.0447 8.35495 29.1098 8.36202 29.1726 8.34869C29.2354 8.33537 29.2931 8.30224 29.3385 8.25351C29.3838 8.20477 29.4147 8.14263 29.4273 8.07495C29.4399 8.00726 29.4335 7.93708 29.4091 7.87328C29.3846 7.80948 29.3432 7.75495 29.2899 7.71657C29.2367 7.6782 29.1741 7.65772 29.1101 7.65771C29.0245 7.65771 28.9424 7.6943 28.8818 7.75947C28.8211 7.82463 28.7869 7.91305 28.7867 8.00535Z" fill="#D72F5D"/>
<path id="Vector_37" d="M11.8477 7.5781C11.6697 7.5781 11.5253 7.42245 11.5253 7.23046C11.5253 7.03846 11.6697 6.88281 11.8477 6.88281C12.0258 6.88281 12.1702 7.03846 12.1702 7.23046C12.1702 7.42245 12.0258 7.5781 11.8477 7.5781Z" fill="#D72F5D"/>
<path id="Vector_38" d="M9.66244 5.41746C9.48437 5.41746 9.34002 5.26181 9.34002 5.06981C9.34002 4.87781 9.48437 4.72217 9.66244 4.72217C9.84051 4.72217 9.98486 4.87781 9.98486 5.06981C9.98486 5.26181 9.84051 5.41746 9.66244 5.41746Z" fill="#D72F5D"/>
<path id="Vector_39" d="M30.2035 14.7807C30.0254 14.7807 29.881 14.6251 29.881 14.4331C29.881 14.2411 30.0254 14.0854 30.2035 14.0854C30.3815 14.0854 30.5259 14.2411 30.5259 14.4331C30.5259 14.6251 30.3815 14.7807 30.2035 14.7807Z" fill="#D72F5D"/>
<path id="Vector_40" d="M33.5559 34.9746C33.5557 35.0436 33.5745 35.1112 33.6099 35.1687C33.6454 35.2262 33.6958 35.2711 33.7549 35.2976C33.814 35.3242 33.8791 35.3313 33.9419 35.3179C34.0047 35.3046 34.0624 35.2715 34.1078 35.2227C34.1531 35.174 34.184 35.1119 34.1966 35.0442C34.2092 34.9765 34.2028 34.9063 34.1784 34.8425C34.1539 34.7787 34.1124 34.7242 34.0592 34.6858C34.006 34.6474 33.9434 34.627 33.8794 34.627C33.7938 34.627 33.7117 34.6635 33.6511 34.7287C33.5904 34.7939 33.5562 34.8823 33.5559 34.9746Z" fill="#D72F5D"/>
<path id="Vector_41" d="M25.1361 9.10447C24.958 9.10447 24.8137 8.94882 24.8137 8.75682C24.8137 8.56483 24.958 8.40918 25.1361 8.40918C25.3141 8.40918 25.4585 8.56483 25.4585 8.75682C25.4585 8.94882 25.3141 9.10447 25.1361 9.10447Z" fill="#F6605D"/>
<path id="Vector_42" d="M28.8811 35.2433C28.8811 35.3123 28.9001 35.3797 28.9356 35.4371C28.9712 35.4944 29.0217 35.5391 29.0808 35.5655C29.1399 35.5919 29.205 35.5988 29.2677 35.5854C29.3305 35.5719 29.3881 35.5387 29.4333 35.4899C29.4786 35.4412 29.5094 35.379 29.5219 35.3113C29.5343 35.2437 29.5279 35.1736 29.5035 35.1098C29.479 35.0461 29.4375 34.9916 29.3843 34.9533C29.3311 34.915 29.2686 34.8945 29.2046 34.8945C29.1188 34.8945 29.0365 34.9313 28.9759 34.9967C28.9152 35.0621 28.8811 35.1508 28.8811 35.2433Z" fill="#F6605D"/>
<path id="Vector_43" d="M28.4149 29.6719C28.2368 29.6719 28.0925 29.5162 28.0925 29.3242C28.0925 29.1322 28.2368 28.9766 28.4149 28.9766C28.593 28.9766 28.7373 29.1322 28.7373 29.3242C28.7373 29.5162 28.593 29.6719 28.4149 29.6719Z" fill="#F6605D"/>
<path id="Vector_44" d="M31.8922 22.2002C31.7141 22.2002 31.5698 22.0445 31.5698 21.8525C31.5698 21.6605 31.7141 21.5049 31.8922 21.5049C32.0702 21.5049 32.2146 21.6605 32.2146 21.8525C32.2146 22.0445 32.0702 22.2002 31.8922 22.2002Z" fill="#F6605D"/>
<path id="Vector_45" d="M16.6165 9.77391C16.4385 9.77391 16.2941 9.61826 16.2941 9.42626C16.2941 9.23426 16.4385 9.07861 16.6165 9.07861C16.7946 9.07861 16.939 9.23426 16.939 9.42626C16.939 9.61826 16.7946 9.77391 16.6165 9.77391Z" fill="#F6605D"/>
<path id="Vector_46" d="M36.5616 13.8174C36.3835 13.8174 36.2392 13.6617 36.2392 13.4697C36.2392 13.2777 36.3835 13.1221 36.5616 13.1221C36.7397 13.1221 36.884 13.2777 36.884 13.4697C36.884 13.6617 36.7397 13.8174 36.5616 13.8174Z" fill="#F6605D"/>
<path id="Vector_47" d="M28.3899 4.73876C28.3897 4.80779 28.4085 4.87533 28.4439 4.93283C28.4793 4.99034 28.5298 5.03522 28.5889 5.06179C28.648 5.08836 28.713 5.09543 28.7759 5.0821C28.8387 5.06877 28.8964 5.03564 28.9418 4.98691C28.9871 4.93818 29.018 4.87604 29.0306 4.80835C29.0431 4.74066 29.0368 4.67048 29.0123 4.60668C28.9879 4.54288 28.9464 4.48835 28.8932 4.44997C28.84 4.4116 28.7774 4.39111 28.7134 4.39111C28.6278 4.39111 28.5457 4.4277 28.485 4.49287C28.4244 4.55803 28.3902 4.64645 28.3899 4.73876Z" fill="#F6605D"/>
<path id="Vector_48" d="M12.7624 6.532C12.7274 6.56992 12.7037 6.61814 12.6941 6.6706C12.6846 6.72305 12.6896 6.77739 12.7087 6.82675C12.7277 6.87611 12.7599 6.91828 12.8011 6.94795C12.8424 6.97762 12.8908 6.99345 12.9404 6.99345C12.99 6.99345 13.0385 6.97762 13.0797 6.94795C13.1209 6.91828 13.1531 6.87611 13.1722 6.82675C13.1912 6.77739 13.1963 6.72305 13.1867 6.6706C13.1771 6.61814 13.1534 6.56992 13.1184 6.532C13.0712 6.48118 13.0071 6.45264 12.9404 6.45264C12.8737 6.45264 12.8096 6.48118 12.7624 6.532Z" fill="#F6605D"/>
<path id="Vector_49" d="M11.3847 4.92214C11.2461 4.92214 11.1337 4.80097 11.1337 4.6515C11.1337 4.50203 11.2461 4.38086 11.3847 4.38086C11.5234 4.38086 11.6357 4.50203 11.6357 4.6515C11.6357 4.80097 11.5234 4.92214 11.3847 4.92214Z" fill="#F6605D"/>
<path id="Vector_50" d="M27.4961 8.04662C27.4961 8.08626 27.507 8.12502 27.5275 8.15798C27.5479 8.19094 27.5769 8.21663 27.6109 8.2318C27.6449 8.24697 27.6822 8.25094 27.7183 8.2432C27.7544 8.23547 27.7875 8.21638 27.8135 8.18835C27.8395 8.16032 27.8572 8.12461 27.8643 8.08573C27.8715 8.04685 27.8678 8.00655 27.8538 7.96992C27.8397 7.9333 27.8159 7.90199 27.7853 7.87997C27.7547 7.85795 27.7188 7.84619 27.682 7.84619C27.6327 7.84619 27.5854 7.86731 27.5506 7.9049C27.5157 7.94248 27.4961 7.99347 27.4961 8.04662Z" fill="#F6605D"/>
<path id="Vector_51" d="M26.2409 9.78735C26.2407 9.82726 26.2515 9.86634 26.2719 9.89964C26.2923 9.93293 26.3214 9.95894 26.3556 9.97437C26.3897 9.9898 26.4273 9.99396 26.4636 9.98631C26.5 9.97866 26.5334 9.95955 26.5596 9.93141C26.5859 9.90326 26.6038 9.86735 26.6111 9.82822C26.6184 9.78909 26.6147 9.7485 26.6006 9.71161C26.5865 9.67471 26.5625 9.64316 26.5318 9.62096C26.501 9.59877 26.4648 9.58691 26.4278 9.58691C26.3784 9.58691 26.331 9.60799 26.296 9.64555C26.261 9.68311 26.2412 9.73408 26.2409 9.78735Z" fill="#F6605D"/>
<path id="Vector_52" d="M34.7733 14.4333C34.7731 14.4733 34.7839 14.5123 34.8043 14.5456C34.8247 14.5789 34.8539 14.6049 34.888 14.6204C34.9221 14.6358 34.9598 14.64 34.9961 14.6323C35.0324 14.6247 35.0658 14.6055 35.0921 14.5774C35.1183 14.5493 35.1362 14.5133 35.1435 14.4742C35.1508 14.4351 35.1472 14.3945 35.1331 14.3576C35.119 14.3207 35.095 14.2892 35.0642 14.267C35.0335 14.2448 34.9973 14.2329 34.9603 14.2329C34.9109 14.2329 34.8635 14.254 34.8285 14.2915C34.7934 14.3291 34.7736 14.3801 34.7733 14.4333Z" fill="#F6605D"/>
<path id="Vector_53" d="M33.0971 21.3036C33.0971 21.3435 33.1081 21.3825 33.1286 21.4157C33.1492 21.4489 33.1785 21.4747 33.2127 21.4899C33.2469 21.5052 33.2846 21.5091 33.3209 21.5012C33.3572 21.4934 33.3905 21.474 33.4166 21.4457C33.4427 21.4174 33.4604 21.3814 33.4675 21.3422C33.4746 21.3031 33.4707 21.2625 33.4564 21.2257C33.4421 21.1889 33.418 21.1575 33.3871 21.1355C33.3562 21.1135 33.32 21.1018 33.283 21.1021C33.2585 21.1021 33.2342 21.1073 33.2116 21.1174C33.189 21.1276 33.1684 21.1424 33.1511 21.1612C33.1339 21.1799 33.1202 21.2021 33.1109 21.2266C33.1016 21.251 33.0969 21.2772 33.0971 21.3036Z" fill="#F6605D"/>
<path id="Vector_54" d="M28.8739 14.1658C28.8737 14.2057 28.8845 14.2448 28.9049 14.2781C28.9253 14.3113 28.9545 14.3374 28.9886 14.3528C29.0227 14.3682 29.0604 14.3724 29.0967 14.3647C29.133 14.3571 29.1664 14.338 29.1927 14.3098C29.2189 14.2817 29.2368 14.2458 29.2441 14.2066C29.2514 14.1675 29.2478 14.1269 29.2337 14.09C29.2196 14.0531 29.1956 14.0216 29.1648 13.9994C29.1341 13.9772 29.0979 13.9653 29.0609 13.9653C29.0115 13.9653 28.9641 13.9864 28.929 14.024C28.894 14.0615 28.8742 14.1125 28.8739 14.1658Z" fill="#F6605D"/>
<path id="Vector_55" d="M17.6229 9.2919C17.6231 9.33149 17.6341 9.37013 17.6547 9.40294C17.6752 9.43576 17.7043 9.46127 17.7383 9.47627C17.7723 9.49126 17.8097 9.49507 17.8456 9.48721C17.8816 9.47935 17.9147 9.46017 17.9406 9.4321C17.9664 9.40402 17.984 9.3683 17.9911 9.32945C17.9982 9.29061 17.9945 9.25036 17.9804 9.2138C17.9663 9.17725 17.9425 9.14601 17.9119 9.12403C17.8814 9.10206 17.8455 9.09033 17.8087 9.09033C17.7842 9.09033 17.76 9.09555 17.7374 9.1057C17.7147 9.11584 17.6942 9.13071 17.6769 9.14944C17.6597 9.16817 17.646 9.1904 17.6367 9.21485C17.6274 9.2393 17.6227 9.26548 17.6229 9.2919Z" fill="#F6605D"/>
<path id="Vector_56" d="M33.7924 8.55444C33.7922 8.5944 33.803 8.63353 33.8235 8.66685C33.8439 8.70017 33.8731 8.72618 33.9073 8.74157C33.9415 8.75697 33.9792 8.76106 34.0155 8.75332C34.0519 8.74557 34.0853 8.72635 34.1115 8.6981C34.1377 8.66984 34.1555 8.63382 34.1627 8.59462C34.1699 8.55541 34.1661 8.51479 34.1518 8.47791C34.1375 8.44104 34.1134 8.40957 34.0825 8.3875C34.0516 8.36544 34.0153 8.35378 33.9783 8.35401C33.9291 8.3543 33.8819 8.37552 33.8471 8.41304C33.8123 8.45057 33.7927 8.50137 33.7924 8.55444Z" fill="#F6605D"/>
<path id="Vector_57" d="M29.0724 5.34106C29.0722 5.38097 29.083 5.42005 29.1034 5.45335C29.1238 5.48665 29.1529 5.51266 29.1871 5.52809C29.2212 5.54352 29.2588 5.54767 29.2952 5.54002C29.3315 5.53237 29.3649 5.51327 29.3912 5.48512C29.4174 5.45698 29.4353 5.42106 29.4426 5.38193C29.4499 5.3428 29.4463 5.30222 29.4322 5.26532C29.418 5.22842 29.3941 5.19687 29.3633 5.17468C29.3326 5.15248 29.2964 5.14063 29.2594 5.14063C29.21 5.14062 29.1626 5.1617 29.1275 5.19926C29.0925 5.23682 29.0727 5.2878 29.0724 5.34106Z" fill="#F6605D"/>
<path id="Vector_58" d="M26.1044 7.04223C26.1042 7.08214 26.115 7.12122 26.1354 7.15452C26.1558 7.18782 26.1849 7.21383 26.2191 7.22926C26.2532 7.24469 26.2908 7.24884 26.3272 7.24119C26.3635 7.23354 26.3969 7.21443 26.4231 7.18629C26.4494 7.15815 26.4673 7.12223 26.4746 7.0831C26.4819 7.04397 26.4783 7.00339 26.4641 6.96649C26.45 6.92959 26.4261 6.89805 26.3953 6.87585C26.3645 6.85365 26.3284 6.8418 26.2913 6.8418C26.2419 6.8418 26.1945 6.86288 26.1595 6.90043C26.1245 6.93799 26.1047 6.98897 26.1044 7.04223Z" fill="#F6605D"/>
<path id="Vector_59" d="M31.3083 35.9792C31.308 36.0192 31.3189 36.0583 31.3393 36.0917C31.3598 36.125 31.389 36.151 31.4232 36.1664C31.4574 36.1818 31.495 36.1859 31.5314 36.1781C31.5678 36.1704 31.6012 36.1512 31.6274 36.1229C31.6536 36.0946 31.6714 36.0586 31.6786 36.0194C31.6858 35.9802 31.682 35.9396 31.6677 35.9027C31.6534 35.8658 31.6293 35.8344 31.5984 35.8123C31.5675 35.7903 31.5312 35.7786 31.4941 35.7788C31.4448 35.7788 31.3976 35.7999 31.3627 35.8375C31.3278 35.8751 31.3083 35.9261 31.3083 35.9792Z" fill="#F6605D"/>
<path id="Vector_60" d="M10.3283 4.75512C10.3281 4.79503 10.3389 4.83411 10.3593 4.86741C10.3797 4.90071 10.4088 4.92672 10.4429 4.94215C10.4771 4.95758 10.5147 4.96173 10.551 4.95408C10.5874 4.94643 10.6208 4.92733 10.647 4.89918C10.6733 4.87104 10.6912 4.83512 10.6985 4.79599C10.7058 4.75686 10.7021 4.71628 10.688 4.67938C10.6739 4.64248 10.6499 4.61094 10.6192 4.58874C10.5884 4.56654 10.5522 4.55469 10.5152 4.55469C10.4658 4.55469 10.4184 4.57577 10.3834 4.61332C10.3484 4.65088 10.3286 4.70186 10.3283 4.75512Z" fill="#F6605D"/>
<path id="Vector_61" d="M13.0901 7.73852C13.0901 7.77816 13.101 7.81691 13.1215 7.84987C13.1419 7.88283 13.1709 7.90852 13.2049 7.92369C13.2389 7.93886 13.2762 7.94283 13.3123 7.9351C13.3483 7.92736 13.3815 7.90827 13.4075 7.88024C13.4335 7.85221 13.4512 7.8165 13.4583 7.77762C13.4655 7.73874 13.4618 7.69844 13.4478 7.66182C13.4337 7.62519 13.4099 7.59389 13.3793 7.57187C13.3487 7.54984 13.3128 7.53809 13.276 7.53809C13.2267 7.53809 13.1794 7.5592 13.1446 7.59679C13.1097 7.63438 13.0901 7.68536 13.0901 7.73852Z" fill="#F6605D"/>
<path id="Vector_62" opacity="0.19" d="M6.62406 38.8041C6.62406 39.06 7.67429 39.2684 8.97552 39.2684C10.2768 39.2684 11.3259 39.06 11.3259 38.8041C11.3259 38.5482 10.2757 38.3398 8.97552 38.3398C7.67534 38.3398 6.62406 38.5482 6.62406 38.8041Z" fill="black"/>
<path id="Vector_63" opacity="0.19" d="M17.3539 41.4823C17.3539 41.7383 18.4041 41.9466 19.7043 41.9466C21.0045 41.9466 22.0547 41.7383 22.0547 41.4823C22.0547 41.2264 21.0045 41.0181 19.7032 41.0181C18.402 41.0181 17.3539 41.2264 17.3539 41.4823Z" fill="black"/>
<path id="Vector_64" opacity="0.19" d="M22.4206 41.5907C22.4206 41.8467 23.4708 42.055 24.7721 42.055C26.0733 42.055 27.1235 41.8467 27.1235 41.5907C27.1235 41.3348 26.0733 41.1265 24.7721 41.1265C23.4708 41.1265 22.4206 41.3326 22.4206 41.5907Z" fill="black"/>
<path id="Vector_65" d="M33.3573 29.8325C33.1461 30.0672 32.9032 30.2661 32.6369 30.4225C32.2168 30.6626 32.2893 31.547 32.4132 32.0826C32.5371 32.6182 33.0843 32.6714 33.7543 32.6488C34.4244 32.6261 36.905 32.3272 37.5299 32.7824C38.1548 33.2376 32.7367 35.0857 32.7367 35.0857L29.2835 34.1979C29.2835 34.1979 31.1466 33.7698 31.4197 32.9126C31.6927 32.0554 31.6686 31.6534 31.4942 31.3058C31.3199 30.9581 30.799 30.6626 30.3022 30.6626C29.8055 30.6626 33.3573 29.8325 33.3573 29.8325Z" fill="#914004"/>
<path id="Vector_66" d="M9.80273 34.9474C9.80273 34.9474 9.4215 34.6983 9.28918 34.6802C9.15685 34.662 8.94155 35.055 8.94155 35.055C8.90453 34.9304 8.85449 34.8107 8.79242 34.6983C8.6937 34.5194 8.32927 34.9836 8.32927 34.9836C8.32927 34.9836 8.29566 34.6439 8.2463 34.6269C8.19694 34.61 7.7821 35.055 7.7821 35.055L8.18014 35.6087C8.18014 35.6087 9.45511 35.7152 9.52128 35.6619C9.58744 35.6087 9.80273 34.9474 9.80273 34.9474Z" fill="#343057"/>
<path id="Vector_67" d="M9.68929 34.771C9.68929 34.771 11.8402 35.1107 11.2342 37.3166C10.6282 39.5225 7.55838 39.2077 6.80641 38.2622C6.05445 37.3166 5.6165 35.6724 7.91335 34.8389C7.97962 34.8864 8.03484 34.9498 8.07472 35.024C8.11461 35.0982 8.1381 35.1814 8.14335 35.267C8.25783 35.121 8.40144 35.0049 8.56345 34.9273C8.70343 35.0408 8.81763 35.1872 8.89742 35.3553C8.89742 35.3553 8.8344 35.1073 9.23139 34.9024C9.23139 34.9024 9.52441 35.0156 9.60738 35.2421L9.68929 34.771Z" fill="#605A8F"/>
<path id="Vector_68" opacity="0.45" d="M7.41879 37.2867C8.02583 38.82 9.85007 38.6739 10.7659 38.1926C9.69464 39.3986 7.43665 39.0499 6.80651 38.2572C6.07135 37.3264 5.63235 35.7206 7.80843 34.8748L7.81578 34.9076L7.91345 34.834C7.91345 34.834 6.78866 35.698 7.41879 37.2867Z" fill="#343057"/>
<path id="Vector_69" opacity="0.16" d="M10.8287 36.2361C10.8287 36.2361 10.7048 35.7537 10.3571 35.5929C10.2747 35.5496 10.1837 35.5291 10.0921 35.5332C10.0006 35.5373 9.91142 35.5658 9.83261 35.6162C9.75381 35.6666 9.68783 35.7373 9.64062 35.822C9.59341 35.9066 9.56643 36.0026 9.56211 36.1013C9.51274 36.5837 9.61252 37.0389 9.96014 37.3877C10.3078 37.7365 11.1522 37.3311 10.8287 36.2361Z" fill="#E0E6FF"/>
<path id="Vector_70" opacity="0.19" d="M25.136 6.34617C24.2306 6.34617 23.4966 6.19053 23.4966 5.99853C23.4966 5.80653 24.2306 5.65088 25.136 5.65088C26.0414 5.65088 26.7754 5.80653 26.7754 5.99853C26.7754 6.19053 26.0414 6.34617 25.136 6.34617Z" fill="black"/>
<path id="Vector_71" opacity="0.19" d="M12.813 5.3019C12.813 5.4944 13.5481 5.64954 14.4524 5.64954C15.3566 5.64954 16.0918 5.4944 16.0918 5.3019C16.0918 5.10939 15.3566 4.95312 14.4524 4.95312C13.5481 4.95312 12.813 5.10939 12.813 5.3019Z" fill="black"/>
<path id="Vector_72" opacity="0.19" d="M20.6401 10.0407C19.5288 10.0407 18.6279 9.84901 18.6279 9.61261C18.6279 9.37621 19.5288 9.18457 20.6401 9.18457C21.7514 9.18457 22.6523 9.37621 22.6523 9.61261C22.6523 9.84901 21.7514 10.0407 20.6401 10.0407Z" fill="black"/>
<path id="Vector_73" opacity="0.19" d="M32.9604 5.16663C31.8491 5.16663 30.9482 4.97499 30.9482 4.73859C30.9482 4.50219 31.8491 4.31055 32.9604 4.31055C34.0717 4.31055 34.9727 4.50219 34.9727 4.73859C34.9727 4.97499 34.0717 5.16663 32.9604 5.16663Z" fill="black"/>
<path id="Vector_74" opacity="0.19" d="M18.9767 5.1131C18.1264 5.1131 17.4371 5.04111 17.4371 4.9523C17.4371 4.8635 18.1264 4.7915 18.9767 4.7915C19.827 4.7915 20.5164 4.8635 20.5164 4.9523C20.5164 5.04111 19.827 5.1131 18.9767 5.1131Z" fill="black"/>
<path id="Vector_75" d="M25.7306 1.66819C25.7306 1.66819 26.0855 1.62402 26.1685 1.62402C26.2515 1.62402 26.2021 2.11435 26.2021 2.11435C26.3575 2.08026 26.5152 2.05943 26.6737 2.05207C26.7398 2.07018 26.765 2.58769 26.765 2.58769C26.9403 2.54032 27.097 2.43402 27.2124 2.28421C27.2143 2.51122 27.2031 2.73813 27.1788 2.96364C27.1463 3.1335 26.5161 3.19578 26.4752 3.16068C26.4342 3.12557 25.4249 2.25476 25.4249 2.23212C25.4249 2.20947 25.7306 1.66819 25.7306 1.66819Z" fill="#343057"/>
<path id="Vector_76" d="M27.2143 2.28365C27.2143 2.28365 27.189 2.68565 27.5619 3.35489C27.9347 4.02414 27.8601 5.17578 26.9906 5.81897C26.121 6.46217 24.3324 6.16662 23.4135 5.06933C22.4945 3.97205 22.8884 2.41728 23.6865 1.88166C24.4847 1.34604 25.4257 1.74803 25.7733 1.50684C25.8209 1.65711 25.8515 1.81298 25.8647 1.97112C25.8647 2.14097 26.1294 1.99829 26.3363 1.99829C26.3884 2.16693 26.427 2.34006 26.4518 2.51579C26.4602 2.67659 26.8078 2.44445 26.9076 2.42634C27.0074 2.40822 26.9244 2.56109 27.0315 2.77511C27.1386 2.98913 27.2143 2.28365 27.2143 2.28365Z" fill="#605A8F"/>
<path id="Vector_77" opacity="0.45" d="M23.6867 1.88228C24.2171 1.52558 24.8125 1.58446 25.2547 1.59239L25.2851 1.61503C23.149 1.88228 23.3947 5.11412 25.45 5.63162C26.7597 5.96114 27.3551 5.38249 27.6208 5.00767C27.4853 5.33649 27.267 5.61777 26.9907 5.81959C26.1211 6.46279 24.3326 6.16724 23.4136 5.06995C22.4947 3.97267 22.8948 2.4179 23.6867 1.88228Z" fill="#343057"/>
<path id="Vector_78" d="M20.5657 0.93633C20.5657 0.93633 20.1855 0.686072 20.0532 0.667954C19.9208 0.649836 19.7045 1.04277 19.7045 1.04277C19.6674 0.918401 19.6177 0.798786 19.5564 0.686072C19.4514 0.507155 19.0922 0.971434 19.0922 0.971434C19.0922 0.971434 19.0596 0.631718 19.0092 0.614732C18.9588 0.597746 18.5461 1.04277 18.5461 1.04277L18.9431 1.59651C18.9431 1.59651 20.218 1.70975 20.2842 1.64973C20.3504 1.58972 20.5657 0.93633 20.5657 0.93633Z" fill="#343057"/>
<path id="Vector_79" d="M20.452 0.759277C20.452 0.759277 22.6039 1.09899 21.9979 3.30376C21.3919 5.50852 18.3221 5.19598 17.5701 4.2493C16.8182 3.30262 16.3834 1.65953 18.6771 0.827221C18.7427 0.874906 18.7972 0.938196 18.8366 1.01221C18.8759 1.08623 18.8989 1.169 18.9039 1.25413C19.019 1.10888 19.1625 0.99287 19.324 0.914415C19.464 1.02795 19.5782 1.17432 19.658 1.34246C19.658 1.34246 19.596 1.09446 19.993 0.889502C19.993 0.889502 20.285 1.00274 20.369 1.22922L20.452 0.759277Z" fill="#605A8F"/>
<path id="Vector_80" opacity="0.45" d="M18.1817 3.27395C18.7887 4.8072 20.614 4.66113 21.5298 4.18892C20.4575 5.39491 18.2006 5.04614 17.5704 4.25347C16.83 3.32264 16.3952 1.71692 18.5713 0.872153L18.5786 0.904992L18.6774 0.83252C18.6774 0.83252 17.5526 1.68521 18.1817 3.27395Z" fill="#343057"/>
<path id="Vector_81" d="M32.6129 24.7973C32.4348 24.7973 32.2905 24.6417 32.2905 24.4497C32.2905 24.2577 32.4348 24.1021 32.6129 24.1021C32.791 24.1021 32.9353 24.2577 32.9353 24.4497C32.9353 24.6417 32.791 24.7973 32.6129 24.7973Z" fill="#D72F5D"/>
<path id="Vector_82" d="M30.129 25.226C29.9509 25.226 29.8066 25.0704 29.8066 24.8784C29.8066 24.6864 29.9509 24.5308 30.129 24.5308C30.3071 24.5308 30.4514 24.6864 30.4514 24.8784C30.4514 25.0704 30.3071 25.226 30.129 25.226Z" fill="#F6605D"/>
<path id="Vector_83" d="M36.1888 34.1709C36.0107 34.1709 35.8664 34.0152 35.8664 33.8232C35.8664 33.6312 36.0107 33.4756 36.1888 33.4756C36.3669 33.4756 36.5112 33.6312 36.5112 33.8232C36.5112 34.0152 36.3669 34.1709 36.1888 34.1709Z" fill="#F6605D"/>
<path id="Vector_84" d="M29.2594 24.7175C29.2592 24.7575 29.27 24.7966 29.2905 24.8299C29.311 24.8633 29.3401 24.8893 29.3743 24.9047C29.4085 24.9201 29.4462 24.9241 29.4826 24.9164C29.5189 24.9087 29.5523 24.8894 29.5785 24.8612C29.6048 24.8329 29.6226 24.7969 29.6298 24.7577C29.6369 24.7185 29.6331 24.6779 29.6189 24.641C29.6046 24.6041 29.5805 24.5727 29.5496 24.5506C29.5187 24.5285 29.4824 24.5169 29.4453 24.5171C29.4209 24.5171 29.3967 24.5223 29.3742 24.5324C29.3516 24.5424 29.3311 24.5572 29.3139 24.5758C29.2966 24.5944 29.2829 24.6165 29.2736 24.6408C29.2642 24.6651 29.2594 24.6912 29.2594 24.7175Z" fill="#F6605D"/>
<path id="Vector_85" d="M32.3017 34.801C32.3015 34.841 32.3123 34.8801 32.3327 34.9134C32.3532 34.9468 32.3824 34.9728 32.4166 34.9882C32.4508 35.0036 32.4885 35.0077 32.5248 34.9999C32.5612 34.9922 32.5946 34.9729 32.6208 34.9447C32.647 34.9164 32.6648 34.8804 32.672 34.8412C32.6792 34.802 32.6754 34.7614 32.6611 34.7245C32.6468 34.6876 32.6227 34.6562 32.5918 34.6341C32.5609 34.612 32.5246 34.6004 32.4875 34.6006C32.4383 34.6009 32.3912 34.6221 32.3564 34.6596C32.3216 34.6972 32.3019 34.748 32.3017 34.801Z" fill="#F6605D"/>
<path id="Vector_86" d="M26.3405 29.123C26.3405 29.1629 26.3515 29.2019 26.3721 29.2351C26.3926 29.2682 26.4219 29.2941 26.4561 29.3093C26.4903 29.3245 26.528 29.3284 26.5643 29.3206C26.6006 29.3127 26.6339 29.2934 26.66 29.2651C26.6861 29.2368 26.7038 29.2008 26.7109 29.1616C26.718 29.1224 26.7141 29.0818 26.6998 29.045C26.6855 29.0082 26.6614 28.9768 26.6305 28.9548C26.5996 28.9328 26.5634 28.9212 26.5264 28.9214C26.5019 28.9214 26.4776 28.9266 26.455 28.9368C26.4324 28.9469 26.4118 28.9618 26.3945 28.9805C26.3773 28.9992 26.3636 29.0215 26.3543 29.0459C26.345 29.0704 26.3403 29.0965 26.3405 29.123Z" fill="#F6605D"/>
<path id="Vector_87" d="M31.2965 28.5746C31.2965 28.6145 31.3075 28.6535 31.328 28.6866C31.3486 28.7197 31.3778 28.7456 31.4119 28.7608C31.4461 28.7761 31.4837 28.7801 31.5199 28.7723C31.5562 28.7645 31.5895 28.7453 31.6157 28.7171C31.6418 28.689 31.6596 28.653 31.6668 28.6139C31.674 28.5748 31.6703 28.5343 31.6562 28.4975C31.642 28.4606 31.6181 28.4292 31.5873 28.407C31.5566 28.3849 31.5204 28.373 31.4835 28.373C31.4339 28.373 31.3863 28.3943 31.3513 28.4321C31.3162 28.4699 31.2965 28.5212 31.2965 28.5746Z" fill="#F6605D"/>
<path id="Vector_88" opacity="0.16" d="M26.3775 4.47132C26.3775 4.82576 26.6117 5.11339 26.9026 5.11339C27.1935 5.11339 27.4277 4.82576 27.4277 4.47132C27.4277 4.11688 27.1935 3.82812 26.9026 3.82812C26.6117 3.82812 26.3775 4.11575 26.3775 4.47132Z" fill="#E0E6FF"/>
<path id="Vector_89" opacity="0.16" d="M26.7669 3.37364C26.7666 3.41271 26.7772 3.45096 26.7972 3.48353C26.8172 3.51611 26.8457 3.54154 26.8792 3.55659C26.9126 3.57164 26.9494 3.57564 26.985 3.56807C27.0205 3.56051 27.0532 3.54172 27.0788 3.5141C27.1044 3.48647 27.1218 3.45126 27.1289 3.41293C27.1359 3.37461 27.1322 3.3349 27.1182 3.29885C27.1043 3.2628 27.0807 3.23204 27.0505 3.21047C27.0202 3.18891 26.9848 3.17751 26.9485 3.17774C26.9247 3.17774 26.9011 3.1828 26.879 3.19265C26.857 3.20249 26.8369 3.21693 26.8201 3.23512C26.8032 3.25331 26.7898 3.2749 26.7807 3.29867C26.7716 3.32244 26.7669 3.34791 26.7669 3.37364Z" fill="#E0E6FF"/>
<path id="Vector_90" opacity="0.16" d="M21.8447 2.3548C21.8447 2.3548 21.7397 1.73879 21.4246 1.4806C21.1096 1.22242 20.6139 1.17712 20.6212 1.80107C20.6286 2.42501 20.804 2.76586 20.6884 3.30148C20.5729 3.8371 21.1684 3.98884 21.4331 3.72952C21.6977 3.47021 21.9498 3.06934 21.8447 2.3548Z" fill="#E0E6FF"/>
<path id="Vector_91" d="M15.9131 1.36397C15.9131 1.36397 15.5655 1.09673 15.4657 1.11372C15.3028 1.16803 15.1624 1.28172 15.0687 1.43532C15.0687 1.43532 14.7872 1.02539 14.6875 1.02539C14.5877 1.02539 14.3566 1.40021 14.3566 1.40021L14.3062 1.11372C14.1698 1.20172 14.0693 1.34208 14.0248 1.50666C13.9586 1.77503 14.3734 2.13173 14.3734 2.13173C14.3734 2.13173 15.284 2.52467 15.3502 2.48957C15.4163 2.45447 15.9131 1.36397 15.9131 1.36397Z" fill="#343057"/>
<path id="Vector_92" d="M15.8455 1.20752C15.8455 1.20752 17.9964 1.54724 17.3904 3.752C16.7845 5.95676 13.7146 5.64309 12.9627 4.69754C12.2107 3.752 11.7728 2.10777 14.0728 1.27433C14.1379 1.32173 14.1922 1.3845 14.2315 1.45788C14.2708 1.53125 14.2941 1.61332 14.2996 1.69784C14.4141 1.55189 14.5577 1.43575 14.7197 1.35813C14.8593 1.47209 14.9734 1.61836 15.0537 1.78617C15.0537 1.78617 14.9907 1.53818 15.3876 1.33321C15.3876 1.33321 15.6807 1.44645 15.7636 1.67293L15.8455 1.20752Z" fill="#605A8F"/>
<path id="Vector_93" opacity="0.45" d="M12.8884 1.96289C12.67 2.76802 12.9703 4.1518 14.3314 4.7112C15.4447 5.16415 16.6062 4.72139 16.999 4.54021C15.9624 5.85604 13.6089 5.50953 12.963 4.69761C12.3843 3.97062 11.9936 2.8303 12.8884 1.96289Z" fill="#343057"/>
<path id="Vector_94" opacity="0.16" d="M16.8489 1.97487C16.7146 1.87621 16.5507 1.83577 16.3899 1.86163C16.1536 1.91712 15.9383 2.20814 16.1704 2.59995C16.4025 2.99175 16.7691 3.67798 17.0768 3.42772C17.3845 3.17747 17.3604 2.91022 17.2207 2.50596C17.1369 2.30007 17.0096 2.11819 16.8489 1.97487Z" fill="#E0E6FF"/>
<path id="Vector_95" d="M17.0135 3.9895C17.0135 3.9895 18.28 3.85588 18.8272 4.95316C19.3744 6.05045 19.1003 7.39006 18.1067 7.92568C17.1132 8.4613 15.7962 8.5417 15.0023 7.47273C14.2083 6.40375 13.9342 4.2307 17.0135 3.9895Z" fill="#605A8F"/>
<path id="Vector_96" d="M17.3035 3.99763C17.3035 3.99763 16.9979 4.2241 16.9558 4.43473C16.9558 4.43473 16.6996 4.26487 16.5085 4.30111C16.3173 4.33734 16.2196 4.65781 16.2196 4.65781C16.2196 4.65781 15.8962 4.31809 15.7471 4.43133C15.5979 4.54457 15.4908 4.74387 15.515 4.73481C15.5391 4.72575 15.4824 4.41321 15.3585 4.44945C15.3585 4.44945 15.4635 3.98517 15.6557 4.01235C15.7776 4.03253 15.8922 4.08768 15.9876 4.17201C16.0127 4.03833 16.078 3.91732 16.1734 3.82777C16.3142 3.71453 16.6124 4.03273 16.6124 4.03273C16.6744 3.91064 16.7658 3.8089 16.8771 3.73831C17.0388 3.64885 17.3035 3.99763 17.3035 3.99763Z" fill="#343057"/>
<path id="Vector_97" opacity="0.45" d="M14.7263 5.04248C14.7032 5.20894 14.5541 6.55988 15.8585 7.32764C17.2574 8.14976 18.6941 6.91772 18.8632 6.60518C18.8839 6.56667 18.9154 6.53626 18.9531 6.51835C18.9909 6.50043 19.033 6.49594 19.0732 6.50553C18.942 7.11362 18.6111 7.65264 18.1039 7.92554C17.1104 8.46116 15.7934 8.54156 14.9994 7.47259C14.5321 6.83732 14.2443 5.8193 14.7263 5.04248Z" fill="#343057"/>
<path id="Vector_98" d="M21.2809 5.25638C21.2809 5.25638 22.9098 5.16692 23.4528 6.60732C23.9958 8.04772 23.4108 9.76103 21.0929 9.78368C18.7751 9.80632 18.3791 8.25155 18.4191 7.28336C18.459 6.31517 19.275 5.16692 21.2809 5.25638Z" fill="#605A8F"/>
<path id="Vector_99" d="M21.6755 6.11415C21.6755 6.11415 21.6912 5.63176 21.4759 5.77444C21.3661 5.84134 21.2659 5.92528 21.1787 6.02356C21.1787 6.02356 21.0958 5.80954 20.9687 5.77444C20.8416 5.73933 20.7943 6.20248 20.7943 6.20248C20.7943 6.20248 20.4635 6.00658 20.3469 6.11302C20.2304 6.21947 20.4961 6.45274 20.4961 6.45274C20.4961 6.45274 20.3144 6.5422 20.4635 6.66676C20.6126 6.79132 20.4961 7.0948 20.8279 7.0948C20.8694 7.09847 20.9111 7.09203 20.9499 7.07597C20.9888 7.0599 21.0238 7.03462 21.0523 7.00199C21.0808 6.96937 21.1022 6.93023 21.1148 6.88749C21.1274 6.84475 21.131 6.7995 21.1252 6.75509C21.1252 6.75509 21.3741 7.05857 21.54 6.93287C21.7059 6.80718 21.6555 6.55805 21.6555 6.55805C21.7191 6.55648 21.7812 6.53772 21.8363 6.50349C21.8913 6.46926 21.9375 6.42066 21.9706 6.36215C22.0725 6.16624 21.6755 6.11415 21.6755 6.11415Z" fill="#343057"/>
<path id="Vector_100" opacity="0.45" d="M18.4189 7.28304C18.4256 7.13902 18.4485 6.99642 18.4872 6.8584C18.462 7.56727 18.7498 8.8967 20.5163 9.30889C22.2365 9.71655 23.2689 8.7291 23.438 8.55132C23.1082 9.2534 22.3605 9.7709 21.0928 9.78336C18.7739 9.80487 18.379 8.25124 18.4189 7.28304Z" fill="#343057"/>
<path id="Vector_101" opacity="0.16" d="M23.2478 7.03271C23.1804 6.82219 23.0415 6.647 22.8592 6.54239C22.5777 6.40763 22.1555 6.53333 22.124 7.12217C22.0925 7.71101 21.9917 8.70752 22.48 8.70185C22.9684 8.69619 23.1301 8.39951 23.2667 7.87181C23.3211 7.59435 23.3147 7.307 23.2478 7.03271Z" fill="#E0E6FF"/>
<path id="Vector_102" opacity="0.19" d="M14.9028 30.2345C13.8994 30.2345 13.0859 30.0611 13.0859 29.8472C13.0859 29.6333 13.8994 29.46 14.9028 29.46C15.9063 29.46 16.7197 29.6333 16.7197 29.8472C16.7197 30.0611 15.9063 30.2345 14.9028 30.2345Z" fill="black"/>
<path id="Vector_103" d="M14.8522 25.8644C14.8522 25.8644 16.3226 25.7828 16.8141 27.0851C17.3056 28.3873 16.7763 29.9319 14.6831 29.9523C12.59 29.9727 12.2309 28.5697 12.2676 27.6955C12.3044 26.8212 13.0416 25.7828 14.8522 25.8644Z" fill="#605A8F"/>
<path id="Vector_104" d="M15.2095 26.6394C15.2095 26.6394 15.2242 26.2034 15.0299 26.3325C14.9304 26.3933 14.8398 26.4696 14.761 26.559C14.761 26.559 14.6854 26.3653 14.5668 26.3325C14.4481 26.2997 14.4166 26.7198 14.4166 26.7198C14.4166 26.7198 14.1173 26.542 14.0133 26.6394C13.9093 26.7368 14.1477 26.9451 14.1477 26.9451C14.1477 26.9451 13.9828 27.0255 14.1173 27.1388C14.2517 27.252 14.1477 27.526 14.447 27.526C14.4844 27.5291 14.522 27.5231 14.557 27.5085C14.592 27.4939 14.6235 27.4711 14.6493 27.4417C14.675 27.4123 14.6944 27.377 14.7059 27.3385C14.7174 27.3 14.7208 27.2592 14.7159 27.2192C14.7159 27.2192 14.9396 27.4932 15.0898 27.3811C15.1339 27.3398 15.167 27.2865 15.1855 27.2267C15.204 27.167 15.2072 27.1029 15.1948 27.0414C15.2521 27.0398 15.3081 27.0227 15.3577 26.9916C15.4072 26.9605 15.4487 26.9165 15.4784 26.8636C15.5687 26.6869 15.2095 26.6394 15.2095 26.6394Z" fill="#343057"/>
<path id="Vector_105" opacity="0.45" d="M12.2685 27.696C12.2741 27.5655 12.2946 27.4362 12.3294 27.311C12.3074 27.952 12.5668 29.1478 14.1621 29.526C15.7153 29.8929 16.6479 29.0017 16.8013 28.8409C16.503 29.475 15.8267 29.9416 14.683 29.9529C12.5888 29.9733 12.2307 28.5703 12.2685 27.696Z" fill="#343057"/>
<path id="Vector_106" opacity="0.16" d="M16.6296 27.4691C16.5692 27.2784 16.4438 27.1197 16.2788 27.0252C16.0247 26.9051 15.6435 27.0172 15.613 27.5495C15.5825 28.0817 15.4933 28.9853 15.9344 28.9763C16.3754 28.9672 16.5214 28.7034 16.6453 28.2266C16.6946 27.9762 16.6892 27.7169 16.6296 27.4691Z" fill="#E0E6FF"/>
<path id="Vector_107" opacity="0.16" d="M17.7962 5.68379C17.9254 6.00992 18.2457 6.17525 18.5103 6.05295C18.775 5.93065 18.8842 5.56715 18.7551 5.24103C18.6259 4.9149 18.3056 4.74844 18.0409 4.87074C17.7762 4.99303 17.667 5.35653 17.7962 5.68379Z" fill="#E0E6FF"/>
<path id="Vector_108" opacity="0.16" d="M17.604 4.61616C17.6182 4.65204 17.642 4.68257 17.6723 4.70388C17.7026 4.72518 17.7381 4.73631 17.7742 4.73586C17.8104 4.7354 17.8457 4.72337 17.8755 4.7013C17.9053 4.67923 17.9284 4.6481 17.9418 4.61187C17.9552 4.57564 17.9584 4.53593 17.9508 4.49778C17.9433 4.45963 17.9254 4.42474 17.8995 4.39755C17.8735 4.37036 17.8407 4.35208 17.8051 4.34504C17.7695 4.33799 17.7328 4.34249 17.6996 4.35797C17.6552 4.37864 17.6203 4.41741 17.6024 4.46579C17.5845 4.51418 17.5851 4.56824 17.604 4.61616Z" fill="#E0E6FF"/>
<path id="Vector_109" d="M21.7336 38.2156C21.7336 38.2156 21.3356 37.5192 21.1371 37.5192C21.0069 37.5235 20.8794 37.5599 20.7643 37.6257C20.7643 37.6257 20.6162 37.2554 20.4166 37.2554C20.2171 37.2554 19.8453 37.4966 19.8453 37.4966L19.9199 38.5157L21.7336 38.2156Z" fill="#343057"/>
<path id="Vector_110" d="M21.5982 37.7305C21.5982 37.7305 23.601 38.6432 22.4972 40.6136C21.3934 42.5839 18.4969 41.4413 17.9917 40.3214C17.4865 39.2015 17.4466 37.4904 19.8653 37.3115C19.9181 37.3756 19.9566 37.4519 19.9777 37.5346C19.9988 37.6173 20.0021 37.704 19.9871 37.7883C20.1314 37.6794 20.2965 37.6067 20.4702 37.5754C20.579 37.7233 20.6551 37.896 20.6929 38.0804C20.6929 38.0804 20.6929 37.8234 21.1224 37.7407C21.1224 37.7407 21.3787 37.9287 21.407 38.1699L21.5982 37.7305Z" fill="#605A8F"/>
<path id="Vector_111" opacity="0.16" d="M22.0958 39.3866C22.0958 39.3866 21.9971 39.0039 21.7209 38.8759C21.6555 38.842 21.5833 38.8261 21.5108 38.8296C21.4382 38.833 21.3676 38.8558 21.3053 38.8958C21.2429 38.9358 21.1906 38.9919 21.1532 39.0589C21.1158 39.126 21.0943 39.202 21.0908 39.2802C21.0628 39.4649 21.0768 39.6541 21.1317 39.8317C21.1866 40.0092 21.2807 40.1697 21.4058 40.2993C21.681 40.579 22.3521 40.2597 22.0958 39.3866Z" fill="#E0E6FF"/>
<path id="Vector_112" d="M24.0501 37.5735C24.0501 37.5735 24.3022 37.2995 24.3652 37.244C24.4282 37.1885 24.675 37.6052 24.675 37.6052C24.777 37.4738 24.8883 37.3511 25.0079 37.2383C25.0699 37.2077 25.3891 37.595 25.3891 37.595C25.499 37.4405 25.5598 37.2518 25.5624 37.0571C25.6953 37.2328 25.8177 37.4174 25.929 37.6097C26.0014 37.7649 25.5467 38.2371 25.4931 38.2371C25.4396 38.2371 24.1499 38.2371 24.1341 38.2201C24.1184 38.2031 24.0501 37.5735 24.0501 37.5735Z" fill="#343057"/>
<path id="Vector_113" d="M25.5625 37.0571C25.5625 37.0571 25.7725 37.3878 26.4541 37.6596C27.1357 37.9313 27.7417 38.8814 27.435 39.9696C27.1284 41.0579 25.5604 42.0306 24.2066 41.7916C22.8529 41.5527 22.2648 40.0716 22.5746 39.1181C22.8844 38.1646 23.8559 37.843 23.9871 37.4195C24.1112 37.5051 24.2254 37.6062 24.3274 37.7207C24.4261 37.8532 24.5501 37.5633 24.7118 37.424C24.8503 37.5202 24.9806 37.6294 25.1014 37.7502C25.2065 37.8702 25.3388 37.4546 25.406 37.3742C25.4732 37.2938 25.4963 37.4671 25.7043 37.5622C25.9122 37.6573 25.5625 37.0571 25.5625 37.0571Z" fill="#605A8F"/>
<path id="Vector_114" opacity="0.16" d="M26.868 38.3789C26.868 38.3789 26.5938 37.9916 26.2242 37.9814C26.1351 37.9746 26.0458 37.9918 25.9644 38.0313C25.883 38.0708 25.8119 38.1315 25.7576 38.2079C25.7033 38.2844 25.6674 38.3741 25.6531 38.4692C25.6389 38.5642 25.6467 38.6616 25.676 38.7526C25.7925 39.2056 26.0362 39.5826 26.4678 39.7616C26.8995 39.9405 27.5296 39.2475 26.868 38.3789Z" fill="#E0E6FF"/>
<path id="Vector_115" opacity="0.45" d="M23.7949 38.2959C23.4221 38.938 23.1984 40.144 24.215 40.9196C25.1014 41.5991 26.6305 40.9129 27.0076 40.7249C26.3774 41.4575 25.2306 41.9705 24.2045 41.7916C22.8518 41.5526 22.2626 40.0715 22.5725 39.118C22.8823 38.1645 23.8537 37.8429 23.985 37.4194C23.9871 37.4206 24.1678 37.6527 23.7949 38.2959Z" fill="#343057"/>
<path id="Vector_116" opacity="0.45" d="M22.0623 41.1616C20.7726 42.3257 18.44 41.3156 17.9916 40.3214C17.5158 39.2694 17.4528 37.6988 19.4493 37.3613C18.9536 37.4746 18.2048 37.8652 18.3056 39.1528C18.4526 41.0235 20.6665 41.7267 22.0623 41.1616Z" fill="#343057"/>
<path id="Vector_117" d="M33.37 0.891734C33.37 0.891734 35.4012 0.827187 35.7593 2.6945C36.1174 4.56181 34.2071 5.66136 31.9963 4.49726C29.7856 3.33316 30.504 0.376497 33.37 0.891734Z" fill="#605A8F"/>
<path id="Vector_118" d="M33.5203 1.07424C33.5203 1.07424 33.4006 0.508044 33.5392 0.281566C33.6778 0.055088 33.4499 -0.00719342 33.3502 0.00299808C33.2504 0.0131896 33.201 0.625812 33.3008 0.851157C33.4006 1.0765 33.4205 1.23504 33.5203 1.07424Z" fill="#343057"/>
<path id="Vector_119" opacity="0.45" d="M31.4616 1.17578C31.136 1.70687 31.0247 3.22767 32.4142 4.24003C33.7542 5.21614 35.2624 4.36232 35.4167 4.26947C34.7866 5.04515 33.457 5.2637 31.9962 4.49595C30.4166 3.66817 30.3337 1.92429 31.4616 1.17578Z" fill="#343057"/>
<path id="Vector_120" opacity="0.16" d="M35.3319 2.33485C35.3319 2.33485 35.1933 1.94757 34.894 1.84566C34.8227 1.81726 34.7461 1.80836 34.6709 1.81976C34.5957 1.83117 34.5243 1.86252 34.4631 1.911C34.4019 1.95949 34.3528 2.02359 34.3202 2.09756C34.2876 2.17153 34.2726 2.25307 34.2764 2.33485C34.2764 2.73685 34.3888 3.10374 34.6965 3.36079C35.0042 3.61785 35.6816 3.21245 35.3319 2.33485Z" fill="#E0E6FF"/>
<path id="Vector_121" opacity="0.18" d="M19.2737 29.6458C19.2737 29.8225 19.4743 29.9674 19.7211 29.9674C19.9679 29.9674 20.1643 29.8225 20.1643 29.6458C20.1643 29.4692 19.9637 29.3242 19.7169 29.3242C19.4701 29.3242 19.2737 29.468 19.2737 29.6458Z" fill="#CC562A"/>
<path id="Vector_122" opacity="0.18" d="M36.8597 27.235C36.6126 27.235 36.4123 27.091 36.4123 26.9134C36.4123 26.7358 36.6126 26.5918 36.8597 26.5918C37.1068 26.5918 37.3071 26.7358 37.3071 26.9134C37.3071 27.091 37.1068 27.235 36.8597 27.235Z" fill="#CC562A"/>
<path id="Vector_123" opacity="0.34" d="M23.6458 36.6619C23.6458 36.8397 23.8464 36.9835 24.0932 36.9835C24.34 36.9835 24.5396 36.8397 24.5396 36.6619C24.5396 36.4841 24.34 36.3403 24.0932 36.3403C23.8464 36.3403 23.6458 36.4841 23.6458 36.6619Z" fill="#CC562A"/>
<path id="Vector_124" opacity="0.28" d="M11.1776 28.7345C10.9305 28.7345 10.7302 28.5905 10.7302 28.4129C10.7302 28.2353 10.9305 28.0913 11.1776 28.0913C11.4247 28.0913 11.625 28.2353 11.625 28.4129C11.625 28.5905 11.4247 28.7345 11.1776 28.7345Z" fill="#CC562A"/>
<path id="Vector_125" opacity="0.38" d="M20.9637 23.2137C20.9637 23.3903 21.1632 23.5353 21.41 23.5353C21.6568 23.5353 21.8574 23.3903 21.8574 23.2137C21.8574 23.037 21.6579 22.8921 21.41 22.8921C21.1622 22.8921 20.9637 23.0404 20.9637 23.2137Z" fill="#CC562A"/>
<path id="Vector_126" opacity="0.38" d="M23.4966 14.5944C23.4966 14.7722 23.6972 14.916 23.944 14.916C24.1908 14.916 24.3904 14.7722 24.3904 14.5944C24.3904 14.4166 24.1908 14.2739 23.944 14.2739C23.6972 14.2739 23.4966 14.4177 23.4966 14.5944Z" fill="#CC562A"/>
<path id="Vector_127" opacity="0.38" d="M11.8222 13.6307C11.8222 13.8085 12.0228 13.9523 12.2696 13.9523C12.5164 13.9523 12.717 13.8085 12.717 13.6307C12.717 13.4529 12.5164 13.3091 12.2696 13.3091C12.0228 13.3091 11.8222 13.4529 11.8222 13.6307Z" fill="#CC562A"/>
<path id="Vector_128" opacity="0.21" d="M36.4122 7.41712C36.1651 7.41712 35.9648 7.27314 35.9648 7.09552C35.9648 6.91791 36.1651 6.77393 36.4122 6.77393C36.6593 6.77393 36.8596 6.91791 36.8596 7.09552C36.8596 7.27314 36.6593 7.41712 36.4122 7.41712Z" fill="#CC562A"/>
<path id="Vector_129" opacity="0.21" d="M12.3193 9.45246C12.3193 9.62911 12.5199 9.77292 12.7667 9.77292C13.0135 9.77292 13.2141 9.62911 13.2141 9.45246C13.2141 9.2758 13.0135 9.13086 12.7667 9.13086C12.5199 9.13086 12.3193 9.27467 12.3193 9.45246Z" fill="#CC562A"/>
<path id="Vector_130" opacity="0.41" d="M7.84813 8.70164C7.84813 8.87942 8.04872 9.02323 8.29552 9.02323C8.54233 9.02323 8.74292 8.87942 8.74292 8.70164C8.74292 8.52385 8.54233 8.37891 8.29657 8.37891C8.05082 8.37891 7.84813 8.52498 7.84813 8.70164Z" fill="#CC562A"/>
<path id="Vector_131" opacity="0.21" d="M31.7171 6.26497C31.7171 6.36915 31.8336 6.45294 31.9786 6.45294C32.1235 6.45294 32.2422 6.36915 32.2422 6.26497C32.2422 6.16079 32.1256 6.07812 31.9817 6.07812C31.8378 6.07812 31.7171 6.16192 31.7171 6.26497Z" fill="#CC562A"/>
<path id="Vector_132" opacity="0.21" d="M28.7008 3.63997C28.7008 3.74415 28.8173 3.82794 28.9612 3.82794C29.1051 3.82794 29.2217 3.74415 29.2217 3.63997C29.2217 3.53579 29.1051 3.45312 28.9612 3.45312C28.8173 3.45312 28.7008 3.53692 28.7008 3.63997Z" fill="#CC562A"/>
<path id="Vector_133" opacity="0.21" d="M35.8535 5.32747C35.8535 5.43165 35.9701 5.51544 36.114 5.51544C36.2579 5.51544 36.3755 5.43165 36.3755 5.32747C36.3755 5.22329 36.2579 5.14062 36.114 5.14062C35.9701 5.14062 35.8535 5.22442 35.8535 5.32747Z" fill="#CC562A"/>
<path id="Vector_134" opacity="0.21" d="M33.9163 5.80989C33.9163 5.91407 34.0328 5.99787 34.1778 5.99787C34.3227 5.99787 34.4382 5.91407 34.4382 5.80989C34.4382 5.70571 34.3217 5.62305 34.1778 5.62305C34.0339 5.62305 33.9163 5.70684 33.9163 5.80989Z" fill="#CC562A"/>
<path id="Vector_135" opacity="0.21" d="M27.8059 3.02538C27.8059 3.12843 27.9225 3.21222 28.0674 3.21222C28.2124 3.21222 28.3279 3.12843 28.3279 3.02538C28.3279 2.92233 28.2113 2.8374 28.0674 2.8374C27.9235 2.8374 27.8059 2.9212 27.8059 3.02538Z" fill="#CC562A"/>
<path id="Vector_136" opacity="0.38" d="M25.6332 17.005C25.3861 17.005 25.1858 16.861 25.1858 16.6834C25.1858 16.5058 25.3861 16.3618 25.6332 16.3618C25.8803 16.3618 26.0806 16.5058 26.0806 16.6834C26.0806 16.861 25.8803 17.005 25.6332 17.005Z" fill="#CC562A"/>
<path id="Vector_137" opacity="0.38" d="M9.78587 17.8621C9.78587 18.0388 9.98647 18.1826 10.2333 18.1826C10.4801 18.1826 10.6807 18.0388 10.6807 17.8621C10.6807 17.6855 10.4801 17.5405 10.2333 17.5405C9.98647 17.5405 9.78587 17.6843 9.78587 17.8621Z" fill="#CC562A"/>
<path id="Vector_138" opacity="0.38" d="M21.6094 36.931C21.6094 37.1076 21.809 37.2514 22.0558 37.2514C22.3026 37.2514 22.5032 37.1076 22.5032 36.931C22.5032 36.7543 22.3026 36.6094 22.0558 36.6094C21.809 36.6094 21.6094 36.7532 21.6094 36.931Z" fill="#CC562A"/>
<path id="Vector_139" opacity="0.16" d="M19.0754 31.7884C19.0754 31.965 19.276 32.11 19.5228 32.11C19.7696 32.11 19.9702 31.965 19.9702 31.7884C19.9702 31.6117 19.7696 31.4668 19.5228 31.4668C19.276 31.4668 19.0754 31.6106 19.0754 31.7884Z" fill="#CC562A"/>
<path id="Vector_140" opacity="0.38" d="M11.8729 21.7179C11.6258 21.7179 11.4255 21.5739 11.4255 21.3963C11.4255 21.2187 11.6258 21.0747 11.8729 21.0747C12.12 21.0747 12.3203 21.2187 12.3203 21.3963C12.3203 21.5739 12.12 21.7179 11.8729 21.7179Z" fill="#CC562A"/>
<path id="Vector_141" opacity="0.38" d="M12.2697 17.9679C12.2697 18.0574 12.3694 18.1287 12.4933 18.1287C12.6173 18.1287 12.717 18.0574 12.717 17.9679C12.717 17.8785 12.6173 17.8071 12.4933 17.8071C12.3694 17.8071 12.2697 17.8796 12.2697 17.9679Z" fill="#CC562A"/>
<path id="Vector_142" opacity="0.38" d="M20.6655 36.6087C20.5419 36.6087 20.4418 36.5367 20.4418 36.4479C20.4418 36.3591 20.5419 36.2871 20.6655 36.2871C20.789 36.2871 20.8892 36.3591 20.8892 36.4479C20.8892 36.5367 20.789 36.6087 20.6655 36.6087Z" fill="#CC562A"/>
<path id="Vector_143" opacity="0.38" d="M23.9681 16.2008C23.9681 16.2903 24.0732 16.3616 24.1918 16.3616C24.3105 16.3616 24.4155 16.2903 24.4155 16.2008C24.4155 16.1114 24.3158 16.04 24.1918 16.04C24.0679 16.04 23.9681 16.1125 23.9681 16.2008Z" fill="#CC562A"/>
<path id="Vector_144" opacity="0.38" d="M13.2636 22.3079C13.1401 22.3079 13.0399 22.2359 13.0399 22.1471C13.0399 22.0583 13.1401 21.9863 13.2636 21.9863C13.3871 21.9863 13.4873 22.0583 13.4873 22.1471C13.4873 22.2359 13.3871 22.3079 13.2636 22.3079Z" fill="#CC562A"/>
<path id="Vector_145" opacity="0.38" d="M14.2568 22.1473C14.1332 22.1473 14.0331 22.0753 14.0331 21.9865C14.0331 21.8977 14.1332 21.8257 14.2568 21.8257C14.3803 21.8257 14.4805 21.8977 14.4805 21.9865C14.4805 22.0753 14.3803 22.1473 14.2568 22.1473Z" fill="#CC562A"/>
<path id="Vector_146" opacity="0.18" d="M20.6655 30.8236C20.5419 30.8236 20.4418 30.7516 20.4418 30.6628C20.4418 30.5739 20.5419 30.502 20.6655 30.502C20.789 30.502 20.8892 30.5739 20.8892 30.6628C20.8892 30.7516 20.789 30.8236 20.6655 30.8236Z" fill="#CC562A"/>
<path id="Vector_147" opacity="0.18" d="M29.4579 31.8411C29.3344 31.8411 29.2342 31.7691 29.2342 31.6803C29.2342 31.5915 29.3344 31.5195 29.4579 31.5195C29.5815 31.5195 29.6816 31.5915 29.6816 31.6803C29.6816 31.7691 29.5815 31.8411 29.4579 31.8411Z" fill="#CC562A"/>
<path id="Vector_148" opacity="0.18" d="M35.0222 29.324C34.8986 29.324 34.7985 29.252 34.7985 29.1632C34.7985 29.0744 34.8986 29.0024 35.0222 29.0024C35.1457 29.0024 35.2458 29.0744 35.2458 29.1632C35.2458 29.252 35.1457 29.324 35.0222 29.324Z" fill="#CC562A"/>
<path id="Vector_149" opacity="0.18" d="M26.9245 37.0369C26.801 37.0369 26.7008 36.9649 26.7008 36.8761C26.7008 36.7873 26.801 36.7153 26.9245 36.7153C27.048 36.7153 27.1482 36.7873 27.1482 36.8761C27.1482 36.9649 27.048 37.0369 26.9245 37.0369Z" fill="#CC562A"/>
<path id="Vector_150" opacity="0.18" d="M24.1173 28.5744C24.1173 28.6627 24.2223 28.7352 24.341 28.7352C24.4597 28.7352 24.5647 28.6627 24.5647 28.5744C24.5647 28.486 24.4597 28.4136 24.341 28.4136C24.2223 28.4136 24.1173 28.4849 24.1173 28.5744Z" fill="#CC562A"/>
<path id="Vector_151" opacity="0.18" d="M34.7238 27.6639C34.6003 27.6639 34.5001 27.5919 34.5001 27.5031C34.5001 27.4143 34.6003 27.3423 34.7238 27.3423C34.8474 27.3423 34.9475 27.4143 34.9475 27.5031C34.9475 27.5919 34.8474 27.6639 34.7238 27.6639Z" fill="#CC562A"/>
<path id="Vector_152" opacity="0.38" d="M18.9262 22.6834C18.8027 22.6834 18.7025 22.6114 18.7025 22.5226C18.7025 22.4338 18.8027 22.3618 18.9262 22.3618C19.0497 22.3618 19.1499 22.4338 19.1499 22.5226C19.1499 22.6114 19.0497 22.6834 18.9262 22.6834Z" fill="#CC562A"/>
<path id="Vector_153" opacity="0.38" d="M19.3984 36.5537C19.3984 36.6432 19.4982 36.7145 19.6221 36.7145C19.746 36.7145 19.8447 36.6432 19.8447 36.5537C19.8447 36.4643 19.7397 36.394 19.6221 36.394C19.5045 36.394 19.3984 36.462 19.3984 36.5537Z" fill="#CC562A"/>
<path id="Vector_154" opacity="0.22" d="M35.6918 27.7174C35.6918 27.8058 35.7968 27.8782 35.9155 27.8782C36.0341 27.8782 36.1392 27.8058 36.1392 27.7174C36.1392 27.6291 36.0341 27.5566 35.9155 27.5566C35.7968 27.5566 35.6918 27.6302 35.6918 27.7174Z" fill="#CC562A"/>
<path id="Vector_155" opacity="0.22" d="M36.8097 31.8939C36.6862 31.8939 36.5861 31.8219 36.5861 31.7331C36.5861 31.6443 36.6862 31.5723 36.8097 31.5723C36.9333 31.5723 37.0334 31.6443 37.0334 31.7331C37.0334 31.8219 36.9333 31.8939 36.8097 31.8939Z" fill="#CC562A"/>
<path id="Vector_156" opacity="0.18" d="M21.5593 29.5926C21.4357 29.5926 21.3356 29.5206 21.3356 29.4318C21.3356 29.343 21.4357 29.271 21.5593 29.271C21.6828 29.271 21.783 29.343 21.783 29.4318C21.783 29.5206 21.6828 29.5926 21.5593 29.5926Z" fill="#CC562A"/>
<path id="Vector_157" opacity="0.18" d="M17.0136 31.4129C16.8901 31.4129 16.7899 31.3409 16.7899 31.2521C16.7899 31.1633 16.8901 31.0913 17.0136 31.0913C17.1372 31.0913 17.2373 31.1633 17.2373 31.2521C17.2373 31.3409 17.1372 31.4129 17.0136 31.4129Z" fill="#CC562A"/>
<path id="Vector_158" opacity="0.38" d="M19.87 14.7542C19.7465 14.7542 19.6463 14.6822 19.6463 14.5934C19.6463 14.5046 19.7465 14.4326 19.87 14.4326C19.9936 14.4326 20.0938 14.5046 20.0938 14.5934C20.0938 14.6822 19.9936 14.7542 19.87 14.7542Z" fill="#CC562A"/>
<path id="Vector_159" opacity="0.38" d="M10.187 13.0417C10.187 13.13 10.2867 13.2024 10.4096 13.2024C10.5325 13.2024 10.6333 13.13 10.6333 13.0417C10.6333 12.9533 10.5283 12.8809 10.4096 12.8809C10.2909 12.8809 10.187 12.9522 10.187 13.0417Z" fill="#CC562A"/>
<path id="Vector_160" opacity="0.38" d="M13.3871 13.6307C13.2636 13.6307 13.1634 13.5587 13.1634 13.4699C13.1634 13.3811 13.2636 13.3091 13.3871 13.3091C13.5107 13.3091 13.6108 13.3811 13.6108 13.4699C13.6108 13.5587 13.5107 13.6307 13.3871 13.6307Z" fill="#CC562A"/>
<path id="Vector_161" opacity="0.21" d="M35.2206 6.66681C35.0971 6.66681 34.9969 6.59482 34.9969 6.50601C34.9969 6.41721 35.0971 6.34521 35.2206 6.34521C35.3442 6.34521 35.4443 6.41721 35.4443 6.50601C35.4443 6.59482 35.3442 6.66681 35.2206 6.66681Z" fill="#CC562A"/>
<path id="Vector_162" opacity="0.21" d="M29.2836 2.97086C29.2836 3.06032 29.3886 3.13166 29.5073 3.13166C29.6259 3.13166 29.731 3.06032 29.731 2.97086C29.731 2.8814 29.6259 2.81006 29.5073 2.81006C29.3886 2.81006 29.2836 2.88253 29.2836 2.97086Z" fill="#CC562A"/>
<path id="Vector_163" opacity="0.21" d="M11.475 8.97004C11.3515 8.97004 11.2513 8.89804 11.2513 8.80924C11.2513 8.72043 11.3515 8.64844 11.475 8.64844C11.5986 8.64844 11.6987 8.72043 11.6987 8.80924C11.6987 8.89804 11.5986 8.97004 11.475 8.97004Z" fill="#CC562A"/>
<path id="Vector_164" opacity="0.38" d="M8.61907 16.3616C8.49552 16.3616 8.39537 16.2896 8.39537 16.2008C8.39537 16.112 8.49552 16.04 8.61907 16.04C8.74262 16.04 8.84277 16.112 8.84277 16.2008C8.84277 16.2896 8.74262 16.3616 8.61907 16.3616Z" fill="#CC562A"/>
<path id="Vector_165" opacity="0.38" d="M18.3551 15.3449C18.3551 15.4332 18.4601 15.5045 18.5788 15.5045C18.6975 15.5045 18.8025 15.4332 18.8025 15.3449C18.8025 15.2566 18.7027 15.1841 18.5788 15.1841C18.4549 15.1841 18.3551 15.2554 18.3551 15.3449Z" fill="#CC562A"/>
<path id="Vector_166" opacity="0.38" d="M26.2043 15.6653C26.0807 15.6653 25.9806 15.5934 25.9806 15.5045C25.9806 15.4157 26.0807 15.3438 26.2043 15.3438C26.3278 15.3438 26.428 15.4157 26.428 15.5045C26.428 15.5934 26.3278 15.6653 26.2043 15.6653Z" fill="#CC562A"/>
<path id="Vector_167" opacity="0.21" d="M33.2577 6.93457C33.2577 7.02403 33.3627 7.09537 33.4814 7.09537C33.6001 7.09537 33.7051 7.02403 33.7051 6.93457C33.7051 6.84511 33.6001 6.7749 33.4814 6.7749C33.3627 6.7749 33.2577 6.84624 33.2577 6.93457Z" fill="#CC562A"/>
</g>
</g>
</g>
<defs>
<linearGradient id="paint0_linear_414_9509" x1="0.0264309" y1="32.4924" x2="44.3252" y2="35.6743" gradientUnits="userSpaceOnUse">
<stop stop-color="#D72F5D"/>
<stop offset="0.33" stop-color="#D83360"/>
<stop offset="0.64" stop-color="#DA3E68"/>
<stop offset="0.93" stop-color="#DD5077"/>
<stop offset="1" stop-color="#DE567B"/>
</linearGradient>
<linearGradient id="paint1_linear_414_9509" x1="-622.282" y1="4861.94" x2="-17790.4" y2="4861.94" gradientUnits="userSpaceOnUse">
<stop stop-color="#D72F5D"/>
<stop offset="0.33" stop-color="#D83360"/>
<stop offset="0.64" stop-color="#DA3E68"/>
<stop offset="0.93" stop-color="#DD5077"/>
<stop offset="1" stop-color="#DE567B"/>
</linearGradient>
<linearGradient id="paint2_linear_414_9509" x1="38.9257" y1="34.2177" x2="5.65334" y2="34.2177" gradientUnits="userSpaceOnUse">
<stop stop-color="#F0A82C"/>
<stop offset="0.31" stop-color="#EFA42C"/>
<stop offset="0.59" stop-color="#EB992C"/>
<stop offset="0.86" stop-color="#E6872C"/>
<stop offset="1" stop-color="#E27A2C"/>
</linearGradient>
<linearGradient id="paint3_linear_414_9509" x1="-2122.73" y1="2036.37" x2="-8354.23" y2="5954.13" gradientUnits="userSpaceOnUse">
<stop stop-color="#F0A82C"/>
<stop offset="0.31" stop-color="#EFA42C"/>
<stop offset="0.59" stop-color="#EB992C"/>
<stop offset="0.86" stop-color="#E6872C"/>
<stop offset="1" stop-color="#E27A2C"/>
</linearGradient>
<radialGradient id="paint4_radial_414_9509" cx="0" cy="0" r="1" gradientUnits="userSpaceOnUse" gradientTransform="translate(-7418.2 1542.46) rotate(180) scale(3579.4 966.762)">
<stop stop-color="#F0A82C"/>
<stop offset="0.31" stop-color="#EFA42C"/>
<stop offset="0.59" stop-color="#EB992C"/>
<stop offset="0.86" stop-color="#E6872C"/>
<stop offset="1" stop-color="#E27A2C"/>
</radialGradient>
<radialGradient id="paint5_radial_414_9509" cx="0" cy="0" r="1" gradientUnits="userSpaceOnUse" gradientTransform="translate(21.4812 15.9405) rotate(180) scale(12.106 13.053)">
<stop stop-color="#E27A2C"/>
<stop offset="0.28" stop-color="#E4802C"/>
<stop offset="0.66" stop-color="#E9932C"/>
<stop offset="1" stop-color="#F0A82C"/>
</radialGradient>
<radialGradient id="paint6_radial_414_9509" cx="0" cy="0" r="1" gradientUnits="userSpaceOnUse" gradientTransform="translate(-10825.7 84.1369) rotate(180) scale(6548.46 1511.45)">
<stop stop-color="#F0A82C"/>
<stop offset="0.31" stop-color="#EFA42C"/>
<stop offset="0.59" stop-color="#EB992C"/>
<stop offset="0.86" stop-color="#E6872C"/>
<stop offset="1" stop-color="#E27A2C"/>
</radialGradient>
<linearGradient id="paint7_linear_414_9509" x1="-2137.66" y1="513.767" x2="-12557.6" y2="513.767" gradientUnits="userSpaceOnUse">
<stop stop-color="#F0A82C"/>
<stop offset="0.31" stop-color="#EFA42C"/>
<stop offset="0.59" stop-color="#EB992C"/>
<stop offset="0.86" stop-color="#E6872C"/>
<stop offset="1" stop-color="#E27A2C"/>
</linearGradient>
<clipPath id="clip0_414_9509">
<rect width="46" height="45" fill="white" transform="matrix(-1 0 0 1 46 0)"/>
</clipPath>
</defs>
</svg>
