<svg width="26" height="17" viewBox="0 0 26 17" fill="none" xmlns="http://www.w3.org/2000/svg">
<g id="Vector">
<g id="Layer 2">
<g id="OBJECTS">
<path id="Vector_2" fill-rule="evenodd" clip-rule="evenodd" d="M23.9834 13.8975C23.9834 15.0191 18.8854 16.2487 13.4781 16.2487C8.07081 16.2487 3.64966 14.2996 3.64966 13.178C3.64966 12.0564 8.78765 11.8677 14.1936 11.8677C19.5995 11.8677 23.9834 12.7759 23.9834 13.8975Z" fill="#E2CAB3"/>
<path id="Vector_3" fill-rule="evenodd" clip-rule="evenodd" d="M24.8202 15.0427C24.8354 15.6418 23.5329 16.1615 21.91 16.2026C20.2871 16.2436 18.9584 15.7922 18.9432 15.1918C18.9281 14.5913 20.2305 14.0729 21.8534 14.0319C23.4763 13.9909 24.805 14.4422 24.8202 15.0427Z" fill="#E2CAB3"/>
<path id="Vector_4" fill-rule="evenodd" clip-rule="evenodd" d="M1.19096 10.7791C0.326337 12.8089 1.3788 13.8717 2.78069 14.0468C3.33316 14.1151 4.16187 13.7363 4.77512 13.4996C5.27408 13.2802 5.74778 13.0082 6.18806 12.6885C6.39662 12.4765 6.64247 12.1879 6.69219 11.8679C6.69887 11.7442 6.67218 11.621 6.61485 11.5109C6.63044 11.4647 6.65328 11.4214 6.68253 11.3823C6.75711 11.2455 6.55546 11.1402 6.65628 10.987C6.8165 10.7422 6.60518 10.4782 6.50159 10.2607C6.46706 10.1909 5.5762 9.40719 5.53476 9.33196C4.79169 8.55369 4.59142 8.18712 3.56935 8.02708C2.28623 7.82465 1.04179 8.28833 1.19096 10.7791Z" fill="#5F825C"/>
<g id="Vector_5" style="mix-blend-mode:multiply" opacity="0.4">
<path fill-rule="evenodd" clip-rule="evenodd" d="M1.65508 10.0295C1.80148 10.0473 1.8733 10.4399 1.81253 10.9104C1.75176 11.3809 1.58602 11.742 1.43823 11.7242C1.29044 11.7065 1.22139 11.3139 1.28078 10.8434C1.34017 10.3729 1.50038 10.0104 1.65508 10.0295Z" fill="#5F825C"/>
</g>
<path id="Vector_6" fill-rule="evenodd" clip-rule="evenodd" d="M1.79322 12.2303C1.47969 12.3671 1.50869 12.7679 1.63576 13.0278C1.63888 13.0319 1.64122 13.0365 1.64267 13.0414C1.67251 13.1013 1.70961 13.1573 1.75316 13.2083C1.90708 13.4024 2.11949 13.5428 2.3595 13.6091C2.6606 13.6843 3.00589 13.6337 3.17992 13.3971C3.18418 13.3898 3.1911 13.3844 3.19926 13.382V13.3519C3.16058 13.1987 2.92302 13.1686 2.79595 13.1495C2.51972 13.1071 2.43823 12.8664 2.35398 12.6434C2.26972 12.4205 2.06945 12.1045 1.79322 12.2303Z" fill="#8DB54F"/>
<g id="Vector_7" style="mix-blend-mode:multiply" opacity="0.4">
<path fill-rule="evenodd" clip-rule="evenodd" d="M4.63011 9.21556C4.37459 9.35234 4.61215 9.66146 4.73508 9.80782C5.01131 10.147 5.38975 10.3905 5.62041 10.7762C5.85107 11.1619 5.54997 11.7597 5.91875 12.0852C5.93652 12.1009 5.95728 12.113 5.97981 12.1207C6.00234 12.1284 6.0262 12.1315 6.04998 12.13C6.07376 12.1285 6.097 12.1223 6.11834 12.1118C6.13968 12.1013 6.15869 12.0866 6.17427 12.0688C6.19042 12.0429 6.20253 12.0148 6.21018 11.9853C6.25506 11.9286 6.29007 11.8648 6.31376 11.7966C6.3759 11.5826 6.36768 11.3546 6.29028 11.1455C6.23227 10.9581 6.36211 10.7762 6.30548 10.5888C6.27953 10.519 6.23798 10.4559 6.18393 10.4042C6.12728 10.3391 6.06227 10.2816 5.99057 10.2332C5.85688 10.1231 5.73346 10.0013 5.62179 9.86937C5.48803 9.71238 5.34111 9.56687 5.18258 9.43441C5.01546 9.27711 4.79861 9.12392 4.63011 9.21556Z" fill="#5F825C"/>
</g>
<path id="Vector_8" fill-rule="evenodd" clip-rule="evenodd" d="M1.4259 10.9049C1.28778 10.8816 1.20076 10.8269 0.754643 10.7175C0.308522 10.6081 0.0820084 10.5834 0.0129494 10.5424C-0.0561096 10.5014 0.137256 10.2866 0.137256 10.2866C0.137256 10.2866 0.471501 10.4138 0.746356 10.515C1.02121 10.6163 1.52396 10.7503 1.52396 10.7503C1.52396 10.7503 1.60269 10.7941 1.57092 10.8652C1.53915 10.9363 1.4259 10.9049 1.4259 10.9049Z" fill="#300D33"/>
<path id="Vector_9" fill-rule="evenodd" clip-rule="evenodd" d="M24.859 6.95083C24.4847 7.037 24.1684 7.26132 23.7789 7.28047C23.3645 7.30099 22.9502 7.13001 22.5455 7.05205C21.6657 6.88244 20.7651 6.78806 19.8757 6.69095C18.0801 6.49399 16.2611 6.40919 14.4587 6.20402C12.6562 5.99885 10.8676 5.76495 9.06379 5.77316C8.19479 5.77532 7.32753 5.85036 6.47132 5.99748C5.76554 6.11921 5.04732 6.26146 4.45618 6.68138C4.0012 7.01281 3.65833 7.47301 3.47278 8.0013C3.23246 8.64417 4.50176 12.5807 4.69374 12.8392C6.36221 15.0277 9.16324 15.5064 13.7722 15.4148C18.6975 15.3163 20.6008 14.7733 21.9958 13.5532C22.7458 12.898 23.377 11.2129 23.4902 10.8832C23.6822 10.3019 23.8949 9.72883 24.0938 9.15025C24.2195 8.78368 24.3507 8.42121 24.5081 8.06696C24.6747 7.73414 24.8133 7.38828 24.9225 7.0329C24.9256 7.02322 24.9264 7.01294 24.9246 7.00292C24.9228 6.99291 24.9187 6.98346 24.9124 6.9754C24.9062 6.96733 24.898 6.96088 24.8887 6.95661C24.8794 6.95233 24.8692 6.95035 24.859 6.95083Z" fill="#DA840D"/>
<path id="Vector_10" fill-rule="evenodd" clip-rule="evenodd" d="M24.1131 7.22012C23.4847 7.65782 22.58 7.6756 21.8438 7.81922C20.0262 8.17485 18.2141 8.41968 16.3592 8.37591C14.5443 8.33488 12.7281 8.12287 10.9201 7.97515C9.07208 7.82469 7.21992 7.71663 5.36638 7.80007C4.95691 7.8149 4.55071 7.87827 4.15646 7.98883C3.95481 8.04627 3.65371 8.12561 3.55289 8.33078C3.52802 8.38402 3.51439 8.44174 3.51283 8.50038V8.50996C3.42168 8.81361 3.52803 9.06802 3.633 9.33747C3.65786 9.451 3.68548 9.56453 3.71172 9.67806C3.66476 9.67806 3.65786 9.74918 3.71172 9.75055H3.72692C3.73262 9.75695 3.73963 9.76208 3.74749 9.76559C3.75535 9.76911 3.76387 9.77092 3.7725 9.77092C3.78112 9.77092 3.78964 9.76911 3.7975 9.76559C3.80536 9.76208 3.81237 9.75695 3.81807 9.75055C4.14403 9.75055 4.46723 9.69037 4.79457 9.68216C5.28627 9.66848 5.70338 9.91742 6.13293 10.1226C6.90363 10.4864 7.63151 10.9118 8.41188 11.2346C8.76005 11.3789 9.11823 11.4982 9.48367 11.5916C9.84804 11.6692 10.2171 11.7231 10.5886 11.753C10.9836 11.8036 11.3745 11.8898 11.7681 11.9431C12.209 11.9949 12.6535 12.009 13.0968 11.9855C14.8574 11.9548 16.6126 11.7833 18.3453 11.4726C19.9199 11.1799 21.4944 10.7395 22.8659 9.89827C23.4082 9.57177 23.8675 9.12627 24.2084 8.59613C24.3659 8.35129 24.4999 8.08731 24.6463 7.83563C24.754 7.64824 24.8838 7.42529 24.8645 7.20781C24.8327 6.73456 24.3065 7.08745 24.1131 7.22012Z" fill="#C66720"/>
<path id="Vector_11" opacity="0.4" fill-rule="evenodd" clip-rule="evenodd" d="M13.5222 14.4957C6.68534 15.4531 4.63843 12.7271 4.70058 12.8078C6.36905 14.9963 9.17146 15.475 13.7791 15.3834C18.7044 15.2863 20.7057 14.7104 22.1021 13.4904C22.8092 12.8707 23.5924 10.5852 23.7484 10.1406C20.3273 12.9282 19.3508 13.675 13.5222 14.4957Z" fill="#C66720"/>
<path id="Vector_12" fill-rule="evenodd" clip-rule="evenodd" d="M25.9942 4.72117C25.9154 4.24108 25.1655 4.17406 24.7953 4.03728C24.468 3.91691 24.2428 3.62694 23.9763 3.40946C23.6886 3.17396 23.3687 2.98008 23.026 2.83361C22.2457 2.49987 21.4639 2.23315 20.7526 1.76126C20.0979 1.32493 19.2941 1.26885 18.5427 1.14712C18.0782 1.07531 17.6236 0.950937 17.1878 0.776448C16.8006 0.59626 16.3916 0.466163 15.971 0.389361C15.5373 0.331914 15.0911 0.430395 14.6575 0.448176C14.1768 0.467326 13.7348 0.311397 13.2832 0.174617C12.9145 0.0423829 12.5229 -0.0157412 12.1313 0.00364233C11.7666 0.0337339 11.4407 0.225225 11.1341 0.413982C11.1264 0.418214 11.1199 0.424342 11.1153 0.43177C11.1107 0.439198 11.1081 0.447676 11.1078 0.456383C10.7611 0.635565 10.4283 0.835263 10.0802 1.01581C9.78979 1.17445 9.47828 1.29186 9.15483 1.3646C8.75843 1.44667 8.38552 1.38101 7.99188 1.33041C7.30129 1.2415 6.64799 1.22509 5.99331 1.47539C5.21433 1.77357 4.59418 2.38087 3.8221 2.70641C3.15775 2.97997 2.57904 3.30414 2.16468 3.91007C1.99222 4.16438 1.87466 4.45123 1.81939 4.75263C1.76828 5.0768 1.84701 5.37088 1.91607 5.68821C2.00723 6.09855 1.92574 6.42682 1.80696 6.82211C1.70574 7.08276 1.71319 7.37254 1.82768 7.62774C1.93541 7.83565 2.16468 7.96969 2.36495 8.07638C2.56523 8.18307 3.07626 8.29796 3.11908 8.5469C3.30139 9.60284 4.50026 9.1077 5.20604 9.36758C5.55272 9.49752 5.87315 9.69449 6.22535 9.82169C6.63004 9.96805 7.05406 10.0775 7.46841 10.1883C8.29712 10.4098 9.09544 10.7053 9.90067 11.0089C10.2556 11.1457 10.5913 11.3153 10.9711 11.3837C11.3509 11.4521 11.7432 11.3906 12.1188 11.3577C12.8992 11.288 15.3674 11.4945 15.6947 11.329C16.1187 11.1225 16.5124 11.1416 16.9709 11.1799C17.3287 11.21 17.638 10.9474 17.9971 10.9187C18.4099 10.8784 18.817 10.7935 19.2112 10.6656C19.5628 10.5311 19.9209 10.4142 20.2844 10.3155C20.6987 10.2238 21.0606 9.92701 21.4791 9.87093C22.2926 9.76014 22.8893 9.30877 23.5191 8.7849C24.0909 8.31028 25.4431 6.67439 25.5605 6.35022C25.6779 6.02605 25.7649 5.66632 25.8602 5.33121C25.9127 5.14382 26.0273 4.92087 25.9942 4.72117Z" fill="#F0A508"/>
<g id="Group" opacity="0.5">
<path id="Vector_13" opacity="0.5" fill-rule="evenodd" clip-rule="evenodd" d="M13.2335 2.3098C13.1189 2.45889 12.9808 2.49992 12.9932 3.42729C13.0056 4.35465 13.0954 4.70481 12.7349 5.40786C12.3744 6.1109 11.6755 6.79344 11.4283 7.54162C11.1811 8.2898 10.8689 9.51809 11.1852 9.99545C11.5015 10.4728 12.6534 10.7081 14.2238 10.7505C15.7942 10.7929 17.5165 10.5385 18.4848 10.2403C19.453 9.9421 20.0123 9.819 20.2319 9.55639C20.4516 9.29377 19.3563 7.05058 18.5897 6.17519C17.8232 5.2998 17.4558 5.00983 16.5912 4.2849C15.7265 3.55996 15.3481 3.27136 14.9213 2.68594C14.4945 2.10052 14.384 2.06906 13.9352 2.0759C13.6816 2.07519 13.435 2.15741 13.2335 2.3098Z" fill="#E2CAB3"/>
<path id="Vector_14" opacity="0.5" fill-rule="evenodd" clip-rule="evenodd" d="M4.51001 8.20369C5.11911 6.81264 5.92296 6.17935 6.14809 5.86475C6.76824 4.99894 7.13563 4.62006 7.95743 4.49696C8.77924 4.37385 8.32897 4.37796 9.26265 4.24802C10.1963 4.11808 10.9795 3.91701 11.6107 3.42734C12.2419 2.93767 12.5678 2.55605 12.9034 2.43705C13.2391 2.31806 13.757 2.0527 13.3896 2.42748C13.0222 2.80226 13.5125 2.94451 12.8219 3.96078C12.1314 4.97705 11.8026 5.50229 11.5568 6.28603C11.3109 7.06978 11.0568 9.5154 10.4947 9.70826C9.93252 9.90112 8.5914 9.93532 7.34557 9.4771C6.37886 9.1013 5.43241 8.67626 4.51001 8.20369Z" fill="#E2CAB3"/>
<path id="Vector_15" opacity="0.5" fill-rule="evenodd" clip-rule="evenodd" d="M21.3467 8.82888C21.3467 8.82888 22.5013 8.47188 23.1643 7.90151C23.8272 7.33114 24.4902 6.79907 24.7002 6.01532C24.9101 5.23157 25.1477 5.03598 24.8908 4.80345C24.6339 4.57093 23.2596 3.33581 22.1284 2.72714C20.9972 2.11847 19.5594 1.73412 18.2804 1.4674C17.0015 1.20068 16.3233 1.35661 15.6562 1.33062C14.9891 1.30463 13.9325 2.06649 13.9477 2.0747C14.317 2.42646 14.7279 2.73279 15.1714 2.98702C15.7708 3.29888 17.1686 3.82685 17.8509 4.21804C18.5332 4.60923 19.0746 5.47367 19.2321 5.87854C19.3895 6.28341 19.6105 6.40925 19.8356 7.18479C20.0608 7.96033 20.6851 9.20913 20.6851 9.20913L21.3467 8.82888Z" fill="#E2CAB3"/>
<path id="Vector_16" opacity="0.5" fill-rule="evenodd" clip-rule="evenodd" d="M2.62903 4.11662C2.62903 4.11662 2.0959 5.53502 2.37214 6.21755C2.56371 6.66525 2.82467 7.08059 3.1456 7.44857C3.1456 7.44857 3.83619 8.10238 4.30717 7.42532C4.77815 6.74826 5.79884 5.16709 6.60959 4.55705C7.42035 3.94701 8.42999 3.8157 9.17859 3.7268C9.92719 3.63789 11.6854 3.33834 12.1716 2.94578C12.6578 2.55323 13.9478 2.0745 13.9478 2.0745C13.3897 1.82076 12.8083 1.6206 12.2117 1.47677C11.3084 1.2716 9.86365 1.82009 8.69103 1.54653C7.51841 1.27297 6.37479 1.88985 5.07648 2.54639C4.21434 2.99533 3.39516 3.5209 2.62903 4.11662Z" fill="#E2CAB3"/>
<path id="Vector_17" opacity="0.5" fill-rule="evenodd" clip-rule="evenodd" d="M10.3635 1.21278C10.3635 1.21278 11.5776 0.0788792 12.4021 0.0993962C13.4449 0.126752 13.7833 0.353806 14.2819 0.509735C14.8496 0.684813 15.0761 0.754571 14.9297 0.980258C14.7833 1.20594 14.0927 2.21128 14.0927 2.21128C14.0927 2.21128 12.4353 1.40564 11.8276 1.31263C11.3428 1.2426 10.8534 1.20922 10.3635 1.21278Z" fill="#E2CAB3"/>
</g>
<path id="Vector_18" opacity="0.4" fill-rule="evenodd" clip-rule="evenodd" d="M22.3037 2.46842C21.9763 2.33164 21.6476 2.21812 21.3258 2.06629C20.9489 1.87465 20.5616 1.70387 20.1656 1.55473C19.8083 1.44618 19.4417 1.37063 19.0703 1.32905C18.2306 1.19227 17.4599 0.848951 16.6547 0.602747C16.193 0.462084 15.7105 0.400108 15.2279 0.419462C14.808 0.446818 14.3868 0.446818 13.9669 0.419462C13.5525 0.375693 13.1879 0.185569 12.7846 0.0802487C12.2943 -0.0483242 11.8868 0.0802487 11.4518 0.311406C10.8095 0.641046 10.1686 1.04318 9.47252 1.25382C9.10074 1.3739 8.71165 1.43304 8.32062 1.4289C7.90627 1.41522 7.51125 1.33315 7.1038 1.3058C6.65494 1.25833 6.20178 1.34002 5.79859 1.54106C5.49258 1.70167 5.20421 1.89327 4.93811 2.1128C4.93673 2.13694 4.93673 2.16114 4.93811 2.18529C4.85779 2.41767 4.82905 2.66447 4.85386 2.90885C4.86601 3.15822 4.93196 3.40212 5.04727 3.62414C5.16258 3.84615 5.32457 4.04113 5.52235 4.19595C5.80964 4.43668 6.11073 4.62134 6.35106 4.90994C6.59138 5.19855 6.76541 5.49946 7.04165 5.73062C7.49191 6.11087 8.08996 6.14096 8.65625 6.14096C8.95458 6.14096 9.25153 6.12591 9.54849 6.14096C9.95607 6.18346 10.3568 6.27533 10.7418 6.41452C11.5374 6.66072 12.3178 7.0013 13.1396 7.16134C13.9614 7.32137 14.7763 7.12851 15.5746 6.9165C16.3729 6.70449 17.1602 6.56224 17.9419 6.35707C18.6487 6.185 19.3195 5.8915 19.9239 5.48989C20.5689 5.02586 21.1522 4.48312 21.66 3.87452C21.8548 3.6502 22.0399 3.41767 22.2319 3.19062C22.4026 3.01952 22.5168 2.80103 22.5592 2.56417C22.4725 2.53653 22.3872 2.50457 22.3037 2.46842Z" fill="#E2CAB3"/>
<path id="Vector_19" fill-rule="evenodd" clip-rule="evenodd" d="M11.2833 3.4082C11.2198 3.42188 11.1563 3.43282 11.0969 3.44103H11.0775C10.6439 3.52447 10.2143 3.62842 9.76819 3.59422C9.46709 3.57234 8.29033 3.6038 8.56656 4.14134C8.56982 4.15064 8.56982 4.16076 8.56656 4.17007C8.80965 4.32326 9.34969 4.26034 9.53339 4.24666C9.68913 4.23612 9.84382 4.21372 9.99608 4.17964C10.4293 4.0095 10.8413 3.79058 11.2239 3.5272C11.2487 3.49015 11.2686 3.45017 11.2833 3.4082Z" fill="#C66720"/>
<path id="Vector_20" fill-rule="evenodd" clip-rule="evenodd" d="M12.996 4.51034C13.0245 4.22396 13.0143 3.93507 12.9656 3.65137C12.7811 4.08543 12.5446 4.49597 12.2612 4.87418C12.0955 5.08071 11.8759 5.2599 11.7419 5.48969C11.6701 5.61279 11.5706 5.79607 11.6231 5.94653C11.706 6.18316 11.8524 6.18179 12.0085 6.15033C12.2764 5.9862 12.5222 5.60321 12.6548 5.40625C12.7775 5.2238 12.8772 5.02721 12.9518 4.82083C12.967 4.71825 12.9808 4.61566 12.996 4.51034Z" fill="#C66720"/>
<path id="Vector_21" fill-rule="evenodd" clip-rule="evenodd" d="M17.4117 3.68989C17.0878 3.55928 16.7573 3.4456 16.4214 3.34931C16.2163 3.2965 16.0158 3.22743 15.8219 3.14278C15.6731 3.05428 15.5049 3.00267 15.3316 2.99232C15.3211 2.99163 15.3107 2.99365 15.3012 2.99816C15.2918 3.00267 15.2837 3.00953 15.2777 3.01807C15.2717 3.02661 15.2681 3.03654 15.2671 3.04689C15.2661 3.05723 15.2679 3.06765 15.2722 3.07712C15.2859 3.12065 15.313 3.15888 15.3496 3.18655C15.5555 3.47179 15.7837 3.7407 16.0319 3.99081C16.2542 4.23975 16.4462 4.50784 16.6948 4.739C17.0318 5.06043 17.6409 5.25602 17.9862 4.81286C18.3674 4.31908 17.8481 3.87181 17.4117 3.68989Z" fill="#C66720"/>
<path id="Vector_22" fill-rule="evenodd" clip-rule="evenodd" d="M16.0194 1.26592C15.902 1.01561 15.5208 1.02245 15.268 1.08127C15.2475 1.08392 15.2272 1.08803 15.2072 1.09358C14.8574 1.27178 14.5861 1.57119 14.4448 1.93477C14.8592 1.81304 15.1644 1.52443 15.6023 1.47382C15.6727 1.46562 16.0995 1.43416 16.0194 1.26592Z" fill="#C66720"/>
<path id="Vector_23" fill-rule="evenodd" clip-rule="evenodd" d="M10.1742 1.72033C10.2297 1.73784 10.2873 1.74796 10.3455 1.75042C10.4823 1.72723 10.6211 1.71806 10.7598 1.72306C10.8137 1.72038 10.8676 1.72038 10.9214 1.72306C11.1023 1.73024 11.2826 1.7476 11.4615 1.77504L11.5319 1.79419C11.6303 1.8045 11.7289 1.77763 11.8082 1.71896C11.4035 1.54251 10.2889 1.12397 10.1369 1.66425C10.1348 1.67653 10.1375 1.68915 10.1444 1.69956C10.1513 1.70996 10.162 1.71739 10.1742 1.72033Z" fill="#C66720"/>
<path id="Vector_24" fill-rule="evenodd" clip-rule="evenodd" d="M2.59862 7.64023C2.56628 7.71139 2.54307 7.7863 2.52956 7.86318C2.50889 7.9204 2.49679 7.9803 2.49365 8.04099C2.4943 8.04481 2.49586 8.04843 2.49818 8.05154C2.50051 8.05466 2.50355 8.05718 2.50705 8.05892C2.51055 8.06065 2.51441 8.06154 2.51832 8.06151C2.52223 8.06149 2.52609 8.06055 2.52956 8.05878C2.571 8.03552 2.57238 7.96577 2.57929 7.922C2.59181 7.82905 2.61308 7.73746 2.64282 7.64844C2.65387 7.62792 2.61105 7.61424 2.59862 7.64023Z" fill="#C66720"/>
<path id="Vector_25" fill-rule="evenodd" clip-rule="evenodd" d="M2.85821 7.85214C2.82294 7.91988 2.79738 7.99216 2.78225 8.06689C2.7712 8.10655 2.73943 8.16947 2.75186 8.20367C2.75265 8.2081 2.75479 8.21219 2.758 8.21537C2.76122 8.21855 2.76534 8.22067 2.76982 8.22145C2.8223 8.22145 2.82783 8.15306 2.83611 8.11613C2.85545 8.03543 2.87202 7.95199 2.89965 7.87266C2.90932 7.84941 2.87202 7.82752 2.85821 7.85214Z" fill="#C66720"/>
<path id="Vector_26" fill-rule="evenodd" clip-rule="evenodd" d="M4.10679 8.785C4.09436 8.92178 4.05016 9.05855 4.05155 9.20354C4.05155 9.24457 4.11646 9.25141 4.11784 9.20354C4.13872 9.06254 4.15209 8.92055 4.1579 8.77816C4.15652 8.7508 4.10956 8.75764 4.10679 8.785Z" fill="#C66720"/>
<path id="Vector_27" fill-rule="evenodd" clip-rule="evenodd" d="M4.44936 8.85596C4.4042 8.96379 4.38255 9.07985 4.38582 9.19654C4.38582 9.24031 4.45626 9.24851 4.45764 9.19654C4.46172 9.08362 4.47418 8.97116 4.49493 8.86006C4.50046 8.83818 4.45902 8.83134 4.44936 8.85596Z" fill="#C66720"/>
<path id="Vector_28" fill-rule="evenodd" clip-rule="evenodd" d="M10.0307 10.7231C10.0098 10.7746 9.99501 10.8283 9.98646 10.8831C9.97345 10.9322 9.96787 10.9829 9.96988 11.0335C9.9717 11.039 9.97522 11.0438 9.97993 11.0472C9.98464 11.0505 9.99031 11.0524 9.99613 11.0524C10.0019 11.0524 10.0076 11.0505 10.0123 11.0472C10.017 11.0438 10.0206 11.039 10.0224 11.0335C10.0341 10.9889 10.0401 10.9429 10.0403 10.8968C10.0486 10.8393 10.0514 10.7819 10.0624 10.7244C10.0652 10.7121 10.0376 10.708 10.0307 10.7231Z" fill="#C66720"/>
<path id="Vector_29" fill-rule="evenodd" clip-rule="evenodd" d="M10.4228 10.771C10.4012 10.8401 10.3864 10.9111 10.3786 10.983C10.3631 11.0433 10.3585 11.1058 10.3648 11.1677C10.367 11.173 10.3707 11.1776 10.3755 11.1808C10.3803 11.184 10.3859 11.1857 10.3917 11.1857C10.3975 11.1857 10.4032 11.184 10.408 11.1808C10.4128 11.1776 10.4165 11.173 10.4187 11.1677C10.4334 11.1138 10.4399 11.058 10.438 11.0022C10.438 10.9256 10.4504 10.849 10.4574 10.7738C10.4566 10.7699 10.4546 10.7664 10.4517 10.7638C10.4488 10.7612 10.4451 10.7596 10.4411 10.7593C10.4372 10.759 10.4333 10.76 10.43 10.7621C10.4267 10.7642 10.4242 10.7673 10.4228 10.771Z" fill="#C66720"/>
<path id="Vector_30" fill-rule="evenodd" clip-rule="evenodd" d="M11.9822 11.0049C11.9822 10.983 11.956 10.9638 11.945 10.9843C11.9094 11.052 11.8905 11.1269 11.8897 11.2032C11.8897 11.2415 11.88 11.34 11.9284 11.3495C11.9315 11.3506 11.9347 11.3511 11.938 11.3509C11.9413 11.3508 11.9445 11.3499 11.9474 11.3485C11.9504 11.3472 11.953 11.3452 11.9552 11.3428C11.9574 11.3404 11.9591 11.3376 11.9601 11.3345C11.9624 11.2919 11.9591 11.2491 11.9505 11.2073C11.9499 11.1386 11.9606 11.0702 11.9822 11.0049Z" fill="#C66720"/>
<path id="Vector_31" fill-rule="evenodd" clip-rule="evenodd" d="M12.3704 10.991C12.3695 10.988 12.3675 10.9853 12.3649 10.9834C12.3623 10.9815 12.3592 10.9805 12.3559 10.9805C12.3527 10.9805 12.3495 10.9815 12.3469 10.9834C12.3443 10.9853 12.3424 10.988 12.3414 10.991C12.3109 11.1079 12.2988 11.2288 12.3055 11.3494C12.3055 11.3863 12.3649 11.3904 12.3635 11.3494C12.357 11.2299 12.3593 11.1102 12.3704 10.991Z" fill="#C66720"/>
<path id="Vector_32" fill-rule="evenodd" clip-rule="evenodd" d="M12.7957 11.0334C12.7957 11.0287 12.7938 11.0242 12.7905 11.0208C12.7871 11.0175 12.7825 11.0156 12.7778 11.0156C12.773 11.0156 12.7684 11.0175 12.7651 11.0208C12.7617 11.0242 12.7598 11.0287 12.7598 11.0334C12.7543 11.0881 12.7501 11.1428 12.7474 11.1975C12.7474 11.2372 12.7198 11.2892 12.7474 11.3234C12.7496 11.325 12.7522 11.3259 12.755 11.3259C12.7577 11.3259 12.7604 11.325 12.7626 11.3234C12.8095 11.3234 12.8068 11.2482 12.8095 11.2126C12.8121 11.1525 12.8074 11.0924 12.7957 11.0334Z" fill="#C66720"/>
<path id="Vector_33" fill-rule="evenodd" clip-rule="evenodd" d="M20.3619 10.1786C20.3619 10.1868 20.3619 10.1649 20.3619 10.1622C20.3536 10.1426 20.3466 10.1225 20.3412 10.102C20.3274 10.0487 20.3246 9.99121 20.308 9.93786C20.308 9.92282 20.2777 9.91461 20.2735 9.93786C20.2694 9.96112 20.2735 10.262 20.3591 10.2114C20.3622 10.21 20.3648 10.2078 20.3666 10.205C20.3685 10.2023 20.3697 10.1991 20.37 10.1958C20.3702 10.1925 20.3697 10.1892 20.3682 10.1861C20.3668 10.1831 20.3646 10.1805 20.3619 10.1786Z" fill="#C66720"/>
<path id="Vector_34" fill-rule="evenodd" clip-rule="evenodd" d="M20.8536 10.0557C20.8262 9.97189 20.7929 9.89009 20.7541 9.81085C20.7523 9.80523 20.7483 9.80055 20.743 9.79786C20.7376 9.79517 20.7315 9.79467 20.7258 9.79649C20.7201 9.7983 20.7154 9.80227 20.7127 9.80753C20.71 9.81279 20.7095 9.8189 20.7113 9.82453C20.7319 9.91288 20.7587 9.99972 20.7914 10.0844C20.8066 10.1254 20.8701 10.0967 20.8536 10.0557Z" fill="#C66720"/>
<path id="Vector_35" fill-rule="evenodd" clip-rule="evenodd" d="M21.3258 9.81346C21.2778 9.74501 21.2453 9.66709 21.2305 9.58504C21.2292 9.58 21.2263 9.57552 21.2222 9.57232C21.2181 9.56912 21.213 9.56738 21.2077 9.56738C21.2025 9.56738 21.1974 9.56912 21.1933 9.57232C21.1891 9.57552 21.1862 9.58 21.1849 9.58504C21.1786 9.68311 21.208 9.78018 21.2678 9.8586C21.294 9.90237 21.3534 9.85313 21.3258 9.81346Z" fill="#C66720"/>
<path id="Vector_36" fill-rule="evenodd" clip-rule="evenodd" d="M21.9143 9.74628C21.8678 9.70767 21.8298 9.66011 21.8025 9.6065C21.7752 9.55289 21.7592 9.49435 21.7554 9.43442C21.7557 9.43113 21.755 9.42783 21.7534 9.42494C21.7518 9.42205 21.7493 9.41971 21.7463 9.41824C21.7433 9.41676 21.74 9.41621 21.7367 9.41666C21.7334 9.4171 21.7303 9.41853 21.7278 9.42075C21.6063 9.50555 21.7886 9.7244 21.8562 9.78868C21.8908 9.82698 21.9488 9.78048 21.9143 9.74628Z" fill="#C66720"/>
<path id="Vector_37" fill-rule="evenodd" clip-rule="evenodd" d="M22.5802 9.4347C22.5071 9.31218 22.4264 9.19432 22.3385 9.08181C22.3288 9.0654 22.297 9.07087 22.304 9.09275C22.3468 9.22953 22.4683 9.32664 22.5277 9.45932C22.5429 9.49625 22.5954 9.47163 22.5802 9.4347Z" fill="#C66720"/>
<path id="Vector_38" fill-rule="evenodd" clip-rule="evenodd" d="M23.1295 9.01202C23.1171 8.98603 23.084 8.97098 23.0619 8.95457L22.9527 8.87524C22.9251 8.85472 22.8961 8.83557 22.8671 8.81643C22.8381 8.79728 22.8367 8.80822 22.8243 8.80138C22.8119 8.79454 22.8133 8.80138 22.8174 8.80138C22.8215 8.80138 22.8243 8.82326 22.834 8.83284C22.8584 8.85795 22.8842 8.88169 22.9113 8.90396C22.9458 8.93406 22.9818 8.96141 23.0177 8.98877C23.0536 9.01612 23.0729 9.03937 23.1047 9.03937C23.1082 9.0394 23.1117 9.03868 23.1149 9.03728C23.1181 9.03587 23.121 9.03381 23.1233 9.03122C23.1257 9.02864 23.1274 9.02559 23.1285 9.02228C23.1296 9.01897 23.1299 9.01547 23.1295 9.01202Z" fill="#C66720"/>
<path id="Vector_39" fill-rule="evenodd" clip-rule="evenodd" d="M23.598 8.66992C23.5954 8.66196 23.5907 8.65484 23.5844 8.64931C23.5781 8.64377 23.5704 8.64002 23.5621 8.63846C23.5363 8.62663 23.5126 8.61095 23.4916 8.59195C23.4429 8.54971 23.401 8.50036 23.3673 8.4456C23.3521 8.42235 23.3162 8.4456 23.3273 8.47159C23.3567 8.537 23.3995 8.59567 23.453 8.64393C23.4861 8.67402 23.5483 8.72463 23.5911 8.69591C23.5948 8.69281 23.5975 8.68865 23.5987 8.684C23.5999 8.67934 23.5997 8.67442 23.598 8.66992Z" fill="#C66720"/>
<path id="Vector_40" fill-rule="evenodd" clip-rule="evenodd" d="M25.1574 6.911C25.151 6.9036 25.1432 6.8976 25.1344 6.89336C25.1256 6.88912 25.116 6.88674 25.1063 6.88638C25.0756 6.88112 25.0464 6.86946 25.0206 6.85218C24.9657 6.81457 24.9245 6.76034 24.9032 6.69762C24.9032 6.6771 24.8673 6.68941 24.8687 6.70856C24.8773 6.78238 24.9144 6.85004 24.9723 6.89732C25.0123 6.93015 25.1104 6.98349 25.156 6.93562C25.1591 6.93233 25.1609 6.92806 25.1612 6.92356C25.1615 6.91905 25.1601 6.91461 25.1574 6.911Z" fill="#C66720"/>
<path id="Vector_41" fill-rule="evenodd" clip-rule="evenodd" d="M25.4624 6.5624C25.3457 6.50262 25.2475 6.41285 25.1779 6.30251C25.1655 6.282 25.1296 6.30251 25.142 6.3203C25.2055 6.44657 25.3095 6.54851 25.4376 6.61027C25.4652 6.62121 25.49 6.57471 25.4624 6.5624Z" fill="#C66720"/>
<path id="Vector_42" fill-rule="evenodd" clip-rule="evenodd" d="M25.6517 6.07942C25.5988 6.04526 25.548 6.00779 25.4998 5.96727C25.4529 5.92486 25.4087 5.88246 25.3617 5.84416C25.3437 5.83049 25.3203 5.85647 25.3355 5.87426C25.4074 5.98497 25.5074 6.07506 25.6255 6.1355C25.6327 6.13729 25.6402 6.13653 25.6469 6.13338C25.6536 6.13022 25.6589 6.12486 25.6621 6.11822C25.6652 6.11157 25.6658 6.10406 25.6639 6.09698C25.6621 6.0899 25.6578 6.08369 25.6517 6.07942Z" fill="#C66720"/>
<path id="Vector_43" fill-rule="evenodd" clip-rule="evenodd" d="M2.25596 7.27904C2.13638 7.44133 2.05561 7.62842 2.01978 7.82616C2.01978 7.84257 2.04326 7.84394 2.0474 7.82616C2.09481 7.63835 2.17931 7.4617 2.29601 7.3064C2.31259 7.28041 2.27253 7.25305 2.25596 7.27904Z" fill="#C66720"/>
<path id="Vector_44" fill-rule="evenodd" clip-rule="evenodd" d="M2.04069 7.14348C2.0103 7.15716 1.99787 7.18315 1.97715 7.2105C1.95644 7.23786 1.92053 7.28983 1.89566 7.33224C1.86043 7.38086 1.84158 7.43926 1.8418 7.49911C1.8418 7.51962 1.87357 7.51552 1.87495 7.49911C1.891 7.43719 1.9202 7.37937 1.96058 7.3295C1.99373 7.27889 2.05864 7.22144 2.06555 7.16126C2.06579 7.15822 2.06524 7.15517 2.06394 7.1524C2.06265 7.14963 2.06066 7.14724 2.05816 7.14546C2.05567 7.14367 2.05275 7.14255 2.04969 7.1422C2.04663 7.14186 2.04353 7.1423 2.04069 7.14348Z" fill="#C66720"/>
<path id="Vector_45" fill-rule="evenodd" clip-rule="evenodd" d="M2.43976 7.58791C2.4009 7.64977 2.36939 7.71586 2.34584 7.78487C2.3151 7.84927 2.29282 7.9173 2.27954 7.98731C2.27954 8.00509 2.30578 8.01056 2.30993 7.98731C2.32763 7.91989 2.35312 7.85472 2.38589 7.79308C2.42623 7.73092 2.45434 7.66178 2.46876 7.58928C2.46895 7.58547 2.46759 7.58175 2.465 7.57892C2.46241 7.5761 2.4588 7.57442 2.45495 7.57424C2.4511 7.57405 2.44734 7.57539 2.44449 7.57796C2.44164 7.58052 2.43994 7.5841 2.43976 7.58791Z" fill="#C66720"/>
<path id="Vector_46" fill-rule="evenodd" clip-rule="evenodd" d="M3.18831 8.06689C3.08472 8.09835 3.03638 8.23377 3.00875 8.32814C3.00771 8.333 3.00848 8.33807 3.01093 8.34241C3.01338 8.34675 3.01733 8.35006 3.02205 8.35173C3.02677 8.3534 3.03195 8.35332 3.03662 8.35149C3.04128 8.34967 3.04512 8.34623 3.04743 8.34182C3.06398 8.29403 3.08575 8.24816 3.11234 8.20504C3.13858 8.16401 3.17588 8.12981 3.2035 8.08878C3.20902 8.08057 3.20074 8.06689 3.18831 8.06689Z" fill="#C66720"/>
<path id="Vector_47" fill-rule="evenodd" clip-rule="evenodd" d="M3.41763 8.47737C3.36377 8.49652 3.33476 8.56354 3.3099 8.61415C3.28169 8.67297 3.26887 8.73788 3.27261 8.8029C3.27261 8.82479 3.30576 8.82889 3.30714 8.8029C3.31177 8.74851 3.32578 8.69531 3.34857 8.64561C3.37067 8.59226 3.42454 8.55123 3.43973 8.49788C3.44079 8.49489 3.44094 8.49165 3.44017 8.48856C3.43941 8.48548 3.43775 8.48269 3.43541 8.48051C3.43308 8.47834 3.43015 8.47689 3.42699 8.47633C3.42384 8.47577 3.42059 8.47613 3.41763 8.47737Z" fill="#C66720"/>
<path id="Vector_48" fill-rule="evenodd" clip-rule="evenodd" d="M3.63985 8.62054C3.59557 8.69047 3.56206 8.76653 3.5404 8.84623C3.51083 8.92051 3.48863 8.99747 3.4741 9.07602C3.47301 9.08073 3.47384 9.08569 3.47643 9.08979C3.47902 9.0939 3.48315 9.09681 3.48792 9.0979C3.49268 9.09899 3.49768 9.09816 3.50183 9.0956C3.50597 9.09303 3.50892 9.08894 3.51002 9.08422C3.53057 9.00806 3.55689 8.93353 3.58874 8.86127C3.62773 8.78869 3.65566 8.7108 3.67161 8.63012C3.67225 8.62805 3.67247 8.62588 3.67225 8.62373C3.67204 8.62158 3.67141 8.6195 3.67038 8.61759C3.66935 8.61569 3.66796 8.614 3.66627 8.61263C3.66459 8.61126 3.66265 8.61023 3.66056 8.6096C3.65848 8.60897 3.65629 8.60875 3.65412 8.60896C3.65195 8.60917 3.64984 8.60981 3.64792 8.61082C3.64599 8.61184 3.64429 8.61322 3.64291 8.61489C3.64152 8.61655 3.64048 8.61848 3.63985 8.62054Z" fill="#C66720"/>
<path id="Vector_49" fill-rule="evenodd" clip-rule="evenodd" d="M3.84303 8.84096C3.79489 8.94779 3.77493 9.06498 3.78502 9.18154C3.78502 9.2048 3.82094 9.20753 3.82094 9.18154C3.82094 9.06802 3.87204 8.95586 3.86513 8.8437C3.86437 8.84153 3.86301 8.83962 3.86121 8.83818C3.85941 8.83674 3.85724 8.83583 3.85494 8.83554C3.85264 8.83526 3.85031 8.83562 3.84821 8.83657C3.8461 8.83753 3.84431 8.83905 3.84303 8.84096Z" fill="#C66720"/>
<path id="Vector_50" fill-rule="evenodd" clip-rule="evenodd" d="M10.8247 10.8763C10.7759 11.0031 10.7574 11.1393 10.7709 11.2743C10.7709 11.2921 10.8026 11.2907 10.804 11.2743C10.804 11.2087 10.8137 11.1376 10.822 11.0787C10.8379 11.0138 10.8458 10.9472 10.8454 10.8804C10.8454 10.8667 10.8289 10.8681 10.8247 10.8763Z" fill="#C66720"/>
<path id="Vector_51" fill-rule="evenodd" clip-rule="evenodd" d="M11.1853 11.1388C11.1853 11.0758 11.2157 11.0198 11.2213 10.9568C11.2205 10.9547 11.2191 10.9529 11.2172 10.9517C11.2154 10.9504 11.2132 10.9497 11.2109 10.9497C11.2086 10.9497 11.2064 10.9504 11.2046 10.9517C11.2027 10.9529 11.2013 10.9547 11.2005 10.9568C11.1604 11.0209 11.137 11.0938 11.1324 11.169C11.1278 11.2442 11.1422 11.3194 11.1743 11.3877C11.184 11.4082 11.2116 11.3877 11.2047 11.374C11.18 11.2981 11.1734 11.2176 11.1853 11.1388Z" fill="#C66720"/>
<path id="Vector_52" fill-rule="evenodd" clip-rule="evenodd" d="M11.5169 11.1853C11.5211 11.1228 11.5156 11.06 11.5003 10.9992C11.4988 10.9964 11.4965 10.994 11.4937 10.9923C11.4909 10.9906 11.4877 10.9897 11.4844 10.9897C11.4811 10.9897 11.4779 10.9906 11.4751 10.9923C11.4723 10.994 11.4701 10.9964 11.4685 10.9992C11.4568 11.0612 11.4568 11.1247 11.4685 11.1866C11.4725 11.258 11.485 11.3288 11.5058 11.3973C11.5058 11.4205 11.5486 11.415 11.5431 11.3973C11.5285 11.3274 11.5198 11.2565 11.5169 11.1853Z" fill="#C66720"/>
<path id="Vector_53" fill-rule="evenodd" clip-rule="evenodd" d="M23.946 8.06673C23.946 8.05168 23.9253 8.04347 23.9184 8.05578C23.907 8.07356 23.9009 8.0942 23.9009 8.11528C23.9009 8.13636 23.907 8.157 23.9184 8.17478C23.9405 8.21718 23.9943 8.2801 24.0468 8.27326C24.051 8.27228 24.0546 8.26974 24.0569 8.26617C24.0593 8.2626 24.0601 8.25828 24.0593 8.25411C24.0455 8.18025 23.9281 8.15016 23.946 8.06673Z" fill="#C66720"/>
<path id="Vector_54" fill-rule="evenodd" clip-rule="evenodd" d="M24.4448 7.84682C24.431 7.82494 24.4185 7.8222 24.3937 7.814C24.3597 7.80346 24.3295 7.78352 24.3067 7.75655C24.2625 7.70491 24.2317 7.64342 24.2169 7.57737C24.2164 7.57467 24.2153 7.57211 24.2137 7.56983C24.2122 7.56754 24.2102 7.56558 24.2079 7.56406C24.2056 7.56254 24.203 7.56148 24.2003 7.56094C24.1976 7.56041 24.1948 7.56041 24.192 7.56095C24.1893 7.56149 24.1867 7.56256 24.1844 7.56409C24.1821 7.56561 24.1801 7.56758 24.1786 7.56986C24.1771 7.57215 24.176 7.57471 24.1755 7.57741C24.1749 7.58011 24.1749 7.58288 24.1755 7.58557C24.1879 7.66106 24.2187 7.73241 24.2652 7.79348C24.2998 7.83588 24.3909 7.90564 24.4462 7.86734C24.4481 7.8642 24.449 7.86054 24.4488 7.85686C24.4485 7.85319 24.4471 7.84968 24.4448 7.84682Z" fill="#C66720"/>
<path id="Vector_55" fill-rule="evenodd" clip-rule="evenodd" d="M24.6793 7.38289C24.6365 7.34049 24.5909 7.29809 24.5508 7.25295C24.5343 7.2338 24.4997 7.25295 24.5122 7.2762C24.5434 7.33125 24.5815 7.38225 24.6254 7.42803C24.6627 7.46633 24.7041 7.52788 24.7635 7.53198C24.7664 7.53222 24.7694 7.5318 24.7721 7.53076C24.7748 7.52973 24.7772 7.5281 24.7792 7.52599C24.7812 7.52389 24.7827 7.52137 24.7836 7.51861C24.7845 7.51586 24.7847 7.51295 24.7843 7.51009C24.776 7.45675 24.7207 7.42119 24.6793 7.38289Z" fill="#C66720"/>
<path id="Vector_56" opacity="0.4" fill-rule="evenodd" clip-rule="evenodd" d="M14.5858 2.6214C14.5858 2.99754 14.0043 3.3053 13.2847 3.3053C12.5651 3.3053 11.9836 3.00028 11.9836 2.6214C11.9836 2.24252 12.5651 1.9375 13.2847 1.9375C14.0043 1.9375 14.5858 2.24525 14.5858 2.6214Z" fill="#DA840D"/>
<path id="Vector_57" fill-rule="evenodd" clip-rule="evenodd" d="M21.7097 8.34016C18.7761 7.60292 17.5482 9.22102 17.5966 11.125C17.6159 11.8691 18.301 12.8949 18.7513 13.6705C19.1507 14.2901 19.6165 14.8652 20.1407 15.3857C20.4722 15.6196 20.9142 15.889 21.3575 15.889C21.5275 15.8724 21.69 15.8116 21.8285 15.7126C21.8934 15.7252 21.9562 15.7468 22.015 15.7769C22.2249 15.848 22.3175 15.558 22.5467 15.6606C22.9127 15.8261 23.229 15.4896 23.5025 15.3064C23.5909 15.2475 24.4693 13.8989 24.5646 13.8278C25.4693 12.6774 25.9251 12.3382 25.9348 10.9417C25.9458 9.1964 25.0605 7.63301 21.7097 8.34016Z" fill="#C73A54"/>
<g id="Vector_58" style="mix-blend-mode:multiply">
<path fill-rule="evenodd" clip-rule="evenodd" d="M22.8218 8.79746C22.8218 8.99716 22.3052 9.17223 21.6574 9.18865C21.0097 9.20506 20.4807 9.05187 20.4751 8.85627C20.4696 8.66068 20.9917 8.47739 21.6395 8.46508C22.2872 8.45277 22.8162 8.59776 22.8218 8.79746Z" fill="#ED6366"/>
</g>
<path id="Vector_59" fill-rule="evenodd" clip-rule="evenodd" d="M19.8619 9.44271C19.6036 9.05562 19.0746 9.16915 18.7473 9.39621L18.7307 9.40851C18.6547 9.45936 18.586 9.52008 18.5263 9.58906C18.2935 9.83372 18.1459 10.1458 18.105 10.4795C18.065 10.8898 18.2045 11.3453 18.5622 11.5272C18.5723 11.5323 18.5805 11.5405 18.5857 11.5505C18.5994 11.5476 18.6128 11.5435 18.6257 11.5382C18.8274 11.4561 18.8177 11.1278 18.8191 10.961C18.8191 10.5903 19.1299 10.4262 19.4144 10.2675C19.6754 10.1184 20.0884 9.78329 19.8619 9.44271Z" fill="#ED6366"/>
<g id="Vector_60" style="mix-blend-mode:multiply">
<path fill-rule="evenodd" clip-rule="evenodd" d="M24.5356 12.6024C24.2925 12.2919 23.9279 12.6708 23.7539 12.8623C23.3492 13.3068 23.0964 13.8553 22.6185 14.241C22.1406 14.6267 21.2733 14.3463 20.9017 14.9071C20.8844 14.9341 20.8725 14.9643 20.867 14.9958C20.8614 15.0274 20.8621 15.0597 20.8692 15.091C20.8763 15.1222 20.8895 15.1518 20.9081 15.178C20.9267 15.2042 20.9504 15.2265 20.9777 15.2436C21.0163 15.2586 21.0567 15.2687 21.0979 15.2737C21.1838 15.3214 21.2771 15.3547 21.3741 15.3722C21.6771 15.4114 21.9848 15.3539 22.2525 15.208C22.4956 15.0931 22.7705 15.2272 23.0122 15.1136C23.1015 15.0654 23.1785 14.9976 23.2373 14.9153C23.3148 14.8263 23.3798 14.7274 23.4307 14.6212C23.5522 14.422 23.6909 14.2334 23.845 14.0577C24.0324 13.8471 24.2019 13.6216 24.3519 13.3834C24.5315 13.1276 24.6944 12.8075 24.5356 12.6024Z" fill="#ED6366"/>
</g>
<path id="Vector_61" fill-rule="evenodd" clip-rule="evenodd" d="M24.4585 5.74175C24.2955 5.68703 23.9958 5.93324 23.8687 6.00847C23.5787 6.18081 23.2845 6.35452 23.0055 6.54328C22.5817 6.83763 22.2305 7.22288 21.9779 7.67034C21.8726 7.86088 21.802 8.06831 21.7694 8.28311C21.7265 8.39588 21.7049 8.51551 21.7058 8.63601C21.7051 8.64445 21.706 8.65297 21.7086 8.66105C21.7112 8.66914 21.7153 8.67664 21.7209 8.68313C21.7264 8.68961 21.7331 8.69495 21.7407 8.69884C21.7484 8.70272 21.7567 8.70507 21.7652 8.70576C22.4724 8.71397 23.1961 8.25576 23.6906 7.79481C23.9497 7.56861 24.1549 7.28832 24.2914 6.97413C24.3594 6.79695 24.4103 6.61375 24.4433 6.42701C24.482 6.22731 24.424 5.98521 24.4889 5.80056C24.4924 5.78877 24.4912 5.77608 24.4856 5.76513C24.4799 5.75418 24.4702 5.74581 24.4585 5.74175Z" fill="#8DB54F"/>
<path id="Vector_62" fill-rule="evenodd" clip-rule="evenodd" d="M21.5869 8.68072C21.5869 8.48513 21.6463 8.36339 21.7029 7.74788C21.7596 7.13238 21.7485 6.82462 21.7899 6.7234C21.8314 6.62219 22.1629 6.83693 22.1629 6.83693C22.1629 6.83693 22.0565 7.30882 21.9778 7.69591C21.8991 8.083 21.8203 8.7792 21.8203 8.7792C21.8203 8.7792 21.7775 8.89273 21.6739 8.86401C21.5703 8.83528 21.5869 8.68072 21.5869 8.68072Z" fill="#300D33"/>
</g>
</g>
</g>
</svg>
